<?xml version="1.0" ?><svg data-name="Слой 1" id="Слой_1" viewBox="0 0 128 128" xmlns="http://www.w3.org/2000/svg"><title/><path d="M23,70a2,2,0,0,0,2-2V58c0-3.48,3-6,5-6s3,1,3,3V68a2,2,0,0,0,4,0V57a5,5,0,0,1,5-5c2,0,3,1,3,3V68a2,2,0,0,0,4,0V55c0-4.25-2.75-7-7-7a9.23,9.23,0,0,0-6.34,2.57A6.77,6.77,0,0,0,30,48a8.35,8.35,0,0,0-5,1.89A2,2,0,0,0,21,50V68A2,2,0,0,0,23,70Z"/><path d="M58.76,69.91a9.88,9.88,0,0,0,4.4-1.14c.79-.4,1.58-.86,2.26-1.29A5.72,5.72,0,0,0,66,68.72a2.56,2.56,0,0,0,.33.42A2,2,0,0,0,70,68a2.1,2.1,0,0,0-.69-1.56A3,3,0,0,1,69,65V55c0-3.12-3.4-6.74-7.78-6.74a10.65,10.65,0,0,0-7.63,3.33,2,2,0,0,0,2.82,2.82,6.69,6.69,0,0,1,4.81-2.15C63.4,52.26,65,54.18,65,55v.54a20.75,20.75,0,0,0-7.73,1.25,8.42,8.42,0,0,0-4.84,5.08,6.13,6.13,0,0,0,.91,5.24A6.39,6.39,0,0,0,58.76,69.91ZM56.28,63a4.57,4.57,0,0,1,2.62-2.54,17.53,17.53,0,0,1,6.1-.9V63a30.55,30.55,0,0,1-3.63,2.22c-1,.51-3.51,1.5-4.71-.3A2.21,2.21,0,0,1,56.28,63Z"/><path d="M88.21,65.4a13.39,13.39,0,0,0-7.14-2.51c-.25,0-.5,0-.74,0l8.3-11.77A2,2,0,0,0,87,48H75a2,2,0,0,0,0,4h8.14L73.37,65.85a2,2,0,0,0,2.8,2.77,10.14,10.14,0,0,1,4.9-1.73,9.15,9.15,0,0,1,4.72,1.71A2,2,0,0,0,87,69a2,2,0,0,0,1.21-3.6Z"/><path d="M100,48c-5,0-9,4.83-9,11s4,11,9,11,9-4.83,9-11S105.05,48,100,48Zm0,18c-2.76,0-5-3.14-5-7s2.24-7,5-7,5,3.14,5,7S102.76,66,100,66Z"/><path d="M121,48a8.35,8.35,0,0,0-5,1.89,2,2,0,0,0-4,.11V68a2,2,0,0,0,4,0V58c0-3.48,3-6,5-6,2.78,0,3,2.67,3,3.48V68a2,2,0,0,0,4,0V55.48C128,51.08,125.12,48,121,48Z"/><path d="M78.65,77.51a2,2,0,0,0-2.72-.8c-.11.07-11.19,6-24.12,6-17.86,0-31-9.93-31.17-10a2,2,0,0,0-2.44,3.17A59.54,59.54,0,0,0,51.81,86.74a60.2,60.2,0,0,0,26-6.51A2,2,0,0,0,78.65,77.51Z"/><path d="M83.83,71.67a19.88,19.88,0,0,0-6.33-.53,35.84,35.84,0,0,0-5.4,1.25,2,2,0,0,0,1.22,3.81A31.82,31.82,0,0,1,78,75.11a12.84,12.84,0,0,1,3.2.13,11.8,11.8,0,0,1-.82,3.38,17.88,17.88,0,0,1-2.72,3.68,2,2,0,1,0,2.87,2.79A22.4,22.4,0,0,0,84,80.41a19.4,19.4,0,0,0,1.37-6.73A2,2,0,0,0,83.83,71.67Z"/><path d="M17.08,66.37A3,3,0,0,1,16.8,65V55c0-3.12-3.4-6.74-7.78-6.74a10.65,10.65,0,0,0-7.63,3.33,2,2,0,0,0,2.83,2.82A6.66,6.66,0,0,1,9,52.26c2.19,0,3.78,1.92,3.78,2.74v.54a20.78,20.78,0,0,0-7.73,1.25A8.37,8.37,0,0,0,.24,61.87a6.16,6.16,0,0,0,.9,5.24,6.39,6.39,0,0,0,5.42,2.8A9.88,9.88,0,0,0,11,68.77c.8-.4,1.58-.86,2.27-1.29a7,7,0,0,0,.4.92,3.68,3.68,0,0,0,.46.63,2,2,0,0,0,3.71-1A2.21,2.21,0,0,0,17.08,66.37ZM9.17,65.19c-1,.51-3.51,1.5-4.7-.3A2.22,2.22,0,0,1,4.08,63,4.6,4.6,0,0,1,6.7,60.44a17.53,17.53,0,0,1,6.1-.9V63A30.55,30.55,0,0,1,9.17,65.19Z"/></svg>