<svg id="Layer_1" data-name="Layer 1" xmlns="http://www.w3.org/2000/svg" xmlns:xlink="http://www.w3.org/1999/xlink" viewBox="0 0 91 92"><defs><style>.cls-1{fill:url(#linear-gradient);}</style><linearGradient id="linear-gradient" x1="-1014.98" y1="583.49" x2="-1014.98" y2="584.4" gradientTransform="matrix(100, 0, 0, -100, 101544, 58441)" gradientUnits="userSpaceOnUse"><stop offset="0" stop-color="#1ca9f7"/><stop offset="1" stop-color="#02303f"/></linearGradient></defs><path id="network" class="cls-1" d="M83.66,1H30.82a7.35,7.35,0,0,0-7.34,7.34V39.55A11.73,11.73,0,0,0,13.14,60,16.15,16.15,0,0,0,0,75.85V92H33.76V73.17a2.72,2.72,0,0,1,.79-1.9l2.75-2.75H80.73V64.11a7.36,7.36,0,0,0-7.34-7.34H71.92V50.9H83.66A7.34,7.34,0,0,0,91,43.56V8.34A7.34,7.34,0,0,0,83.66,1ZM11.74,50.9a8.81,8.81,0,1,1,8.81,8.81h0A8.82,8.82,0,0,1,11.74,50.9ZM58,42.1a5.59,5.59,0,0,0-7.57-2.27,5.42,5.42,0,0,0-1.3,1L47.83,42.1H32.29V9.81h49.9V42.1ZM44.89,45,42,48H31.9A11.58,11.58,0,0,0,30.7,45ZM32.29,50.9H39L36.1,53.83a19.11,19.11,0,0,1-6.17,4.11A11.68,11.68,0,0,0,32.29,50.9Zm.18,18.29a5.61,5.61,0,0,0-1.64,4V89.06H10.27V71.45H7.34V89.06H2.94V75.85a13.2,13.2,0,0,1,13.21-13.2H22l3.7-.52A22.12,22.12,0,0,0,38.17,55.9l13-13a2.69,2.69,0,1,1,3.8,3.8Zm45.32-5.08v1.47H40.24l5.87-5.87H73.39a4.4,4.4,0,0,1,4.4,4.4ZM69,56.77H49l5.87-5.87H69ZM88.06,43.56A4.41,4.41,0,0,1,83.66,48H57.71a5.54,5.54,0,0,0,1-2.94H82.19a2.94,2.94,0,0,0,2.94-2.93V9.81a2.94,2.94,0,0,0-2.94-2.94H32.29a3,3,0,0,0-2.94,2.94V43.16a11.71,11.71,0,0,0-2.93-2.41V8.34a4.4,4.4,0,0,1,4.4-4.4H83.66a4.4,4.4,0,0,1,4.4,4.4ZM57.24,12.74A13.21,13.21,0,1,0,70.45,26,13.21,13.21,0,0,0,57.24,12.74Zm8.42,7.34H62a27.38,27.38,0,0,0-1.82-4,10.25,10.25,0,0,1,5.5,4ZM67.51,26a10.16,10.16,0,0,1-.43,2.94H62.8a13.88,13.88,0,0,0,0-5.88h4.28A10.17,10.17,0,0,1,67.52,26ZM54.67,28.89a11.94,11.94,0,0,1,0-5.88h5.14a11.94,11.94,0,0,1,0,5.88Zm4.16,2.93A26.81,26.81,0,0,1,57.24,35a26.88,26.88,0,0,1-1.6-3.17ZM47,26A10,10,0,0,1,47.4,23h4.28a13.83,13.83,0,0,0,0,5.87H47.4A10.11,10.11,0,0,1,47,26Zm8.68-5.87a26.81,26.81,0,0,1,1.59-3.17,26.81,26.81,0,0,1,1.59,3.17Zm-1.33-4a25.4,25.4,0,0,0-1.82,4H48.82A10.25,10.25,0,0,1,54.32,16.11Zm-5.5,15.71H52.5a28,28,0,0,0,1.82,4A10.31,10.31,0,0,1,48.82,31.82Zm11.35,4a28,28,0,0,0,1.82-4h3.68a10.35,10.35,0,0,1-5.5,4ZM76.32,12.74h2.94v2.93H76.32Zm0,5.87h2.94v2.94H76.32Zm0,5.87h2.94v2.94H76.32ZM35.23,36.23h2.93v2.93H35.23Zm0-5.88h2.93v2.94H35.23Zm0-5.87h2.93v2.94H35.23Z"/></svg>