<svg id="Layer_1" data-name="Layer 1" xmlns="http://www.w3.org/2000/svg" xmlns:xlink="http://www.w3.org/1999/xlink" viewBox="0 0 958.28 615.55"><defs><style>.cls-1{fill:none;}.cls-2{opacity:0.4;}.cls-3{fill:#fff;}.cls-4{fill:#455a64;}.cls-5{fill:#263238;}.cls-6{fill:#09577a;}.cls-7{fill:#535353;}.cls-8{fill:#fafafa;}.cls-9{fill:#ebebeb;}.cls-10{fill:#f5f5f5;}.cls-11{fill:#e0e0e0;}.cls-12{clip-path:url(#clip-path);}.cls-13{opacity:0.3;}.cls-14{fill:#ffbe9d;}.cls-15{fill:#eb996e;}</style><clipPath id="clip-path"><path class="cls-1" d="M199.82,268.45a4,4,0,1,1-6.8,0h-4.58a4,4,0,1,1-6.79,0H177a3.82,3.82,0,0,1,.56,2,4,4,0,1,1-7.36-2h-4.58a3.82,3.82,0,0,1,.56,2,4,4,0,0,1-7.9.51,4.34,4.34,0,0,1,0-.51,3.82,3.82,0,0,1,.56-2h-4.58a4,4,0,0,1-6.8,4.06,3.91,3.91,0,0,1-.55-2.06,3.81,3.81,0,0,1,.55-2H143a4,4,0,1,1-6.8,0h-2.87V350.2h68.05V268.45Z"/></clipPath></defs><g id="Mask_Group_3" data-name="Mask Group 3"><g id="Telecommuting-pana"><g id="freepik--background-simple--inject-168" class="cls-2"><path id="Path_2159" data-name="Path 2159" class="cls-3" d="M853.12,114.28l-4.22-8C815.53,42.6,749.7,2,677.9,2.63a187,187,0,0,0-24.57,1.83c-65.19,9.22-124.39,53.41-151.74,113.31C485.49,153,478.87,194.35,451,221.3c-36.2,35-93.46,32.34-143.6,27.38S200,241.15,163.94,276.37c-22.54,22-48.93,81.1-49.36,112.64-1.16,83.56,56.5,164.26,134.26,194.85,81.7,32.13,177,37.36,259.88,26.65,116.1-15,220.08-73.18,292.13-165.46S898.41,222.17,853.12,114.28Z"/></g><g id="freepik--Chair--inject-168"><path id="Path_2160" data-name="Path 2160" class="cls-4" d="M593.28,404.28a25.45,25.45,0,0,1,24.83-21.37c53.61-.72,190.11-1.94,197.43,3.86,9.13,7.25,14,11,13.18,22.46-.67,10.56-12.17,192.92-12.17,192.92H561.05Z"/><path id="Path_2161" data-name="Path 2161" class="cls-5" d="M787.4,602.24a3.33,3.33,0,0,1-.07-.54,8,8,0,0,0-.13-1.55c-.11-1.43-.26-3.48-.45-6.07s-.4-5.89-.53-9.64-.37-8-.37-12.78c0-2.37,0-4.85-.08-7.43s0-5.28.1-8.06c0-5.57.32-11.51.59-17.77.71-12.51,1.89-26.23,3.8-40.56s4.51-27.93,7.17-40.12c1.41-6.1,2.71-11.9,4.17-17.29.72-2.68,1.35-5.29,2.07-7.76s1.41-4.86,2.06-7.14c1.27-4.56,2.65-8.61,3.77-12.22s2.19-6.64,3.1-9.14,1.55-4.37,2-5.74l.56-1.55c.12-.33.2-.5.2-.5a2.53,2.53,0,0,1-.12.53l-.49,1.55c-.45,1.38-1.08,3.32-1.9,5.8s-1.88,5.57-2.95,9.17-2.42,7.67-3.65,12.23c-.65,2.28-1.32,4.66-2,7.16s-1.32,5.1-2,7.76c-1.42,5.37-2.7,11.19-4.1,17.27-2.62,12.23-5.1,25.77-7.09,40.08s-3.1,27.94-3.86,40.48c-.28,6.21-.62,12.18-.67,17.75,0,2.78-.14,5.47-.14,8v7.43c0,4.73.17,9,.26,12.77s.24,7,.38,9.63.23,4.65.29,6.1v1.55a2.6,2.6,0,0,1,.06.56Z"/><path id="Path_2162" data-name="Path 2162" class="cls-5" d="M643.75,474.7a.93.93,0,0,0,.39-.15,3.34,3.34,0,0,1,1.18,0,5.27,5.27,0,0,1,3.74,2.2,6.08,6.08,0,0,1,.37,6.36,8,8,0,0,1-2.48,3,7.83,7.83,0,0,1-4,1.38,6.42,6.42,0,0,1-4.08-1.07,5.1,5.1,0,0,1-2.11-3.32,6.94,6.94,0,0,1,2-6.12c2.88-2.45,5.4-2.53,5.36-2.3s-.14,0-.39,0a7,7,0,0,0-1.09.37,11.35,11.35,0,0,0-3.47,2.26,6.43,6.43,0,0,0-1.63,5.57,4.38,4.38,0,0,0,1.83,2.81,5.63,5.63,0,0,0,3.57.91,7,7,0,0,0,3.55-1.22,7.07,7.07,0,0,0,2.28-2.67,5.54,5.54,0,0,0-.17-5.72,5.32,5.32,0,0,0-3.3-2.22,13.23,13.23,0,0,0-1.54-.07Z"/><path id="Path_2163" data-name="Path 2163" class="cls-5" d="M683.81,451.53c0,.17-2.64-.31-6.86.07a31.44,31.44,0,0,0-25.76,18.12c-1.82,3.83-2.26,6.45-2.43,6.42a7.22,7.22,0,0,1,.3-1.84,26.54,26.54,0,0,1,1.55-4.82,30.58,30.58,0,0,1,26.28-18.39,27.7,27.7,0,0,1,5.07.14A7.23,7.23,0,0,1,683.81,451.53Z"/><path id="Path_2164" data-name="Path 2164" class="cls-5" d="M609.71,499a5.66,5.66,0,0,1,.61-1.32,19.45,19.45,0,0,1,2.25-3.23,23.93,23.93,0,0,1,23.56-8,20.57,20.57,0,0,1,3.76,1.2,5.82,5.82,0,0,1,1.29.66c0,.16-1.93-.72-5.16-1.3a25,25,0,0,0-23,7.85C610.8,497.22,609.85,499.05,609.71,499Z"/><path id="Path_2165" data-name="Path 2165" class="cls-5" d="M659.15,505.32a9.78,9.78,0,0,1-2.62-1.89,29.39,29.39,0,0,1-8.39-13.07,9.33,9.33,0,0,1-.63-3.18,56.71,56.71,0,0,0,4.65,9.84A60.23,60.23,0,0,0,659.15,505.32Z"/><path id="Path_2166" data-name="Path 2166" class="cls-5" d="M730,476.86a1.68,1.68,0,0,1,.39-.16,3.89,3.89,0,0,1,1.18,0,5.41,5.41,0,0,1,3.74,2.2,6.23,6.23,0,0,1,.39,6.37,8.34,8.34,0,0,1-2.5,3,7.83,7.83,0,0,1-4,1.38,6.48,6.48,0,0,1-4.08-1.07,5.13,5.13,0,0,1-2.11-3.32A7,7,0,0,1,725,479c2.87-2.44,5.4-2.53,5.35-2.3s-.14,0-.39.08a6.88,6.88,0,0,0-1.08.37,11.25,11.25,0,0,0-3.48,2.25,6.46,6.46,0,0,0-1.55,5.58,4.33,4.33,0,0,0,1.83,2.8,5.63,5.63,0,0,0,3.57.92,6.92,6.92,0,0,0,3.55-1.23,7,7,0,0,0,2.29-2.67,5.55,5.55,0,0,0-.18-5.71,5.28,5.28,0,0,0-3.3-2.22A12.22,12.22,0,0,0,730,476.86Z"/><path id="Path_2167" data-name="Path 2167" class="cls-5" d="M770,453.68c0,.18-2.64-.31-6.86.08a31.46,31.46,0,0,0-25.74,18.06c-1.81,3.83-2.25,6.45-2.42,6.42a7.22,7.22,0,0,1,.3-1.84,26.54,26.54,0,0,1,1.55-4.82,30.59,30.59,0,0,1,26.25-18.39,27.7,27.7,0,0,1,5.07.14,7.3,7.3,0,0,1,1.85.36Z"/><path id="Path_2168" data-name="Path 2168" class="cls-5" d="M696,501.13a5.45,5.45,0,0,1,.61-1.32,20.43,20.43,0,0,1,2.25-3.22,24,24,0,0,1,23.56-8,20.92,20.92,0,0,1,3.77,1.2,4.57,4.57,0,0,1,1.27.68c0,.14-1.92-.75-5.15-1.32a24.94,24.94,0,0,0-23,7.85C697.07,499.38,696.12,501.21,696,501.13Z"/><path id="Path_2169" data-name="Path 2169" class="cls-5" d="M745.42,507.48a9.78,9.78,0,0,1-2.62-1.89,29.65,29.65,0,0,1-5.08-6,29,29,0,0,1-3.31-7.09,9.41,9.41,0,0,1-.63-3.1,57.62,57.62,0,0,0,4.65,9.82A60.43,60.43,0,0,0,745.42,507.48Z"/></g><g id="freepik--Cushion--inject-168"><path id="Path_2170" data-name="Path 2170" class="cls-6" d="M837.71,347.77C769,279.83,683.33,263.61,683.33,263.61,632.42,294,598.07,344.93,571.92,406.08c43.86,40.59,100.27,79.5,148.54,83.07C796.79,469.86,837.71,347.77,837.71,347.77Z"/><g id="Group_317" data-name="Group 317" class="cls-2"><path id="Path_2171" data-name="Path 2171" class="cls-7" d="M837.71,347.77C769,279.83,683.33,263.61,683.33,263.61,632.42,294,598.07,344.93,571.92,406.08c43.86,40.59,100.27,79.5,148.54,83.07C796.79,469.86,837.71,347.77,837.71,347.77Z"/></g><path id="Path_2172" data-name="Path 2172" class="cls-6" d="M813.2,401.7a2.54,2.54,0,0,1-.17-.46l-.44-1.4q-.57-1.92-1.64-5.47l-6-20.53.3.17-33.73,10.86.21-.2a.56.56,0,0,1-.09.17.36.36,0,0,1-.4.13.47.47,0,0,1-.22-.22V361.81c0-4.06-.17-8.2-.4-12.41a110.92,110.92,0,0,0-1.33-12.87l.48.31L738.89,344l-18.63,4.33-.4.1V348c-2.76-14.5-5.4-28.27-7.76-41l.47.29a275.77,275.77,0,0,1-49,8.55h-.25v-.25c-1.28-10.55-2.31-18.93-3-24.72-.34-2.84-.59-5.06-.77-6.58-.08-.73-.13-1.29-.17-1.71a5.42,5.42,0,0,1,0-.57,2.14,2.14,0,0,1,.11.56,14.1,14.1,0,0,0,.26,1.69c.2,1.55.51,3.74.9,6.58.76,5.77,1.86,14.15,3.24,24.69l-.28-.23a281.52,281.52,0,0,0,48.56-8.61l.38-.11V307c2.44,12.7,5.09,26.46,7.87,40.94l-.48-.31,18.63-4.34,30.67-7.11.4-.1v.4a108.38,108.38,0,0,1,1.32,13c.23,4.24.32,8.4.38,12.42s0,8,0,11.84v10.83h0a.2.2,0,0,0-.2.08h0l-.2-.12-.17-.08.39-.12,33.92-10.84.23-.08v.25l5.82,20.6,1.55,5.5.37,1.41a1.47,1.47,0,0,1,.16.54Z"/><path id="Path_2173" data-name="Path 2173" class="cls-8" d="M800.05,423.32a2.17,2.17,0,0,1-.15-.35c-.11-.28-.25-.64-.42-1.1l-1.55-4.29c-1.34-3.78-3.26-9.31-5.72-16.31l.27.14-40.2,10.74-.37.09v-.37c-1-7.4-2-15.33-3.22-23.7s-2.43-17.18-4.05-26.23l.48.31-29.49,6.85-19.93,4.65-.4.1v-.42c-2.76-14.48-5.38-28.25-7.76-40.95l.47.28a276.87,276.87,0,0,1-49,8.57h-.25v-.24c-1.28-10.55-2.31-18.95-3-24.72-.32-2.86-.59-5.06-.76-6.6-.08-.72-.14-1.29-.18-1.69a2.91,2.91,0,0,1,0-.59,3.78,3.78,0,0,1,.1.57,16,16,0,0,0,.25,1.69c.2,1.55.51,3.73.9,6.57.76,5.79,1.87,14.15,3.25,24.69l-.28-.21A281.72,281.72,0,0,0,687.76,332l.39-.11v.39c2.43,12.7,5.09,26.38,7.88,40.94l-.48-.32,19.92-4.66L745,361.46l.4-.1v.4c1.55,9.08,2.84,17.9,4,26.26s2.2,16.32,3.1,23.72l-.42-.28L792.32,401h.19l.07.19c2.36,7,4.23,12.57,5.51,16.38.61,1.87,1.09,3.32,1.43,4.33.14.46.27.82.34,1.1Z"/><path id="Path_2174" data-name="Path 2174" class="cls-6" d="M773.12,456.79V455.5c0-.84.17-2.13.31-3.74.3-3.32.72-8.15,1.26-14.33l.26.22L733.26,451.5l-.35.12v-.37c-3.3-17.08-7.18-37.25-11.4-59.12l.48.31-25.5,5.88-23.85,5.53-.4.09-.08-.4c-2.76-14.5-5.39-28.27-7.76-41l.45.28a276.87,276.87,0,0,1-49,8.57h-.25v-.25c-1.28-10.55-2.31-18.95-3-24.72-.32-2.86-.59-5.06-.76-6.59-.07-.73-.14-1.28-.18-1.69a2.91,2.91,0,0,1,0-.59,2.29,2.29,0,0,0,.11.58,15.67,15.67,0,0,1,.24,1.69c.2,1.55.52,3.72.9,6.56.76,5.78,1.85,14.14,3.25,24.7l-.28-.22a281,281,0,0,0,48.83-8.75l.39-.11.08.39c2.43,12.68,5.09,26.38,7.88,40.93l-.48-.31,23.86-5.54,25.47-5.86.4-.09V392c4.16,21.87,8,42.06,11.25,59.14l-.42-.25,41.77-13.61.28-.1v.31q-.93,9.31-1.45,14.3c-.17,1.56-.31,2.86-.4,3.75A6.79,6.79,0,0,1,773.12,456.79Z"/><path id="Path_2175" data-name="Path 2175" class="cls-8" d="M717.63,488.9l-.09-.29-.25-.89c-.2-.82-.5-2-.88-3.43-.75-3.1-1.83-7.48-3.21-13.07s-3-12.41-4.82-20.17-3.85-16.6-5.71-26.25l.44.29-49.35,11.49-.42.11-.07-.42c-.25-1.35-.53-2.81-.81-4.27l-7-36.68.48.3a274.8,274.8,0,0,1-49,8.57h-.28v-.28c-1.26-10.39-2.28-18.78-3-24.6-.34-2.87-.59-5.11-.78-6.66-.07-.73-.14-1.3-.17-1.74a2.91,2.91,0,0,1,0-.59,2.4,2.4,0,0,1,.13.59l.24,1.71c.22,1.55.53,3.79.92,6.64.78,5.82,1.88,14.2,3.24,24.59l-.29-.25a281,281,0,0,0,48.83-8.75l.39-.11.09.4c2.2,11.54,4.58,23.87,7.05,36.67.28,1.46.56,2.92.81,4.27l-.49-.31L703,424.35l.36-.08.07.37c1.82,9.62,3.85,18.41,5.59,26.23s3.34,14.64,4.66,20.29,2.31,10,3,13.1c.34,1.55.59,2.64.77,3.48l.19.88C717.63,488.79,717.65,488.9,717.63,488.9Z"/><path id="Path_2176" data-name="Path 2176" class="cls-6" d="M691.42,483.35a13.36,13.36,0,0,1-.57-2.15l-1.34-6c-1.09-5.07-2.58-12.18-4.21-20.18l.49.31-4.66,1.09c-9.08,2.11-17.32,4-23.28,5.28l-7.08,1.55a16.69,16.69,0,0,1-2.62.45,14.86,14.86,0,0,1,2.54-.76l7-1.75c5.93-1.46,14.16-3.42,23.28-5.53l4.66-1.07.4-.09v.4c1.56,8,3,15.18,4,20.28.43,2.47.8,4.49,1.08,6a13.81,13.81,0,0,1,.33,2.11Z"/><path id="Path_2177" data-name="Path 2177" class="cls-6" d="M634.18,455.07a13.11,13.11,0,0,1-.58-2.19c-.34-1.56-.77-3.6-1.29-6-1-5.09-2.45-12.15-3.95-20-.08-.48-.18-.95-.27-1.4l.51.31c-7.38,2-14.09,3.43-19,4.3-2.42.45-4.39.76-5.76.94a10.11,10.11,0,0,1-2.12.22,12.15,12.15,0,0,1,2.08-.51l5.7-1.2c4.82-1,11.48-2.53,18.84-4.53l.42-.11.08.42.28,1.4c1.55,7.76,2.79,14.88,3.71,20,.42,2.46.76,4.5,1,6.09A13.15,13.15,0,0,1,634.18,455.07Z"/><path id="Path_2178" data-name="Path 2178" class="cls-6" d="M576.57,410.35a30.9,30.9,0,0,1-1.24-9.84,15.64,15.64,0,0,1,1,4.87A15.08,15.08,0,0,1,576.57,410.35Z"/><path id="Path_2179" data-name="Path 2179" class="cls-8" d="M824.79,379a1.38,1.38,0,0,1-.09-.39,8.7,8.7,0,0,0-.23-1.13c-.19-1-.45-2.52-.81-4.43-.7-3.91-1.69-9.59-3-16.76l.26.18-23.45,3.76h-.31V360c-2.36-14.11-5.19-31-8.3-49.67l.46.31-32,7.45-16.31,3.78-.39.09-.1-.39c-3.46-14.09-6.69-27.44-9.11-39.75l.4.3-47.63,7.31H684v-.25c-.92-7.64-1.65-13.68-2.16-17.85-.22-2.05-.4-3.63-.53-4.75a12.09,12.09,0,0,0-.12-1.21,1,1,0,0,1,0-.42v.4l.18,1.21.65,4.73c.56,4.18,1.37,10.2,2.38,17.82l-.27-.2,47.59-7.57h.34l.08.34c2.45,12.28,5.7,25.62,9.18,39.7l-.49-.3,16.32-3.78,32-7.42.4-.1v.4c3.1,18.63,5.82,35.7,8.14,49.67l-.34-.24L820.8,356H821v.21c1.18,7.19,2.11,12.89,2.74,16.8.31,1.92.55,3.4.7,4.45.08.48.13.86.17,1.15a1.33,1.33,0,0,1,.14.44Z"/><path id="Path_2180" data-name="Path 2180" class="cls-5" d="M830,346.6a1.67,1.67,0,0,1-.44.17l-1.28.39c-1.12.37-2.81.75-4.92,1.55a102.45,102.45,0,0,0-17.26,7.76,120.84,120.84,0,0,0-22.63,16.47A155.33,155.33,0,0,0,761,398.82a232,232,0,0,0-17.22,29.73c-4.65,9.49-8.41,18.26-11.45,25.66s-5.4,13.44-7.05,17.6c-.82,2-1.46,3.65-1.92,4.8-.2.5-.38.92-.52,1.23a2,2,0,0,1-.2.42,2.13,2.13,0,0,1,.13-.45q.16-.49.45-1.26.62-1.74,1.77-4.84c1.55-4.21,3.85-10.26,6.81-17.71s6.68-16.24,11.32-25.78a229.18,229.18,0,0,1,17.22-29.9,153.49,153.49,0,0,1,22.65-26A118.75,118.75,0,0,1,805.86,356a94.58,94.58,0,0,1,17.44-7.48c2.13-.73,3.85-1.06,5-1.38l1.3-.31A3,3,0,0,1,830,346.6Z"/></g><g id="freepik--Notes--inject-168"><path id="Path_2181" data-name="Path 2181" class="cls-9" d="M337.31,209l.22,4.17a3.65,3.65,0,1,1,.29,5.56l.24,4.19a3.47,3.47,0,0,1,2.28-1,3.64,3.64,0,1,1-2,6.52l.22,4.19a3.59,3.59,0,1,1,2.67,6.25,3.53,3.53,0,0,1-2.38-.73l.24,4.19a3.52,3.52,0,0,1,2.28-1,3.63,3.63,0,0,1,.39,7.25,3.52,3.52,0,0,1-2.38-.74l.22,4.2a3.63,3.63,0,1,1,.29,5.51l.24,4.21a3.53,3.53,0,0,1,2.28-1,3.63,3.63,0,0,1,.39,7.25,3.52,3.52,0,0,1-2.38-.74l.14,2.61,111.9-2.69L446.8,202Z"/><path id="Path_2182" data-name="Path 2182" class="cls-10" d="M334.83,206.19l.23,4.2a3.58,3.58,0,0,1,2.28-1,3.63,3.63,0,1,1-2,6.5l.21,4.19a3.65,3.65,0,1,1,.3,5.56l.23,4.19a3.57,3.57,0,0,1,2.28-1,3.63,3.63,0,1,1-2,6.52l.21,4.19a3.57,3.57,0,0,1,2.29-1,3.63,3.63,0,0,1,.38,7.24,3.45,3.45,0,0,1-2.37-.73l.23,4.2a3.58,3.58,0,0,1,2.28-1,3.63,3.63,0,0,1,.39,7.25,3.55,3.55,0,0,1-2.37-.74l.21,4.2a3.64,3.64,0,1,1,.3,5.51l.14,2.61,111.88-6-3.26-60.89Z"/><path id="Path_2183" data-name="Path 2183" class="cls-11" d="M447.34,212.25c0,.23-25,1.74-55.87,3.4s-55.88,2.81-55.88,2.59,25-1.75,55.88-3.4S447.34,212.06,447.34,212.25Z"/><path id="Path_2184" data-name="Path 2184" class="cls-11" d="M447.87,222c0,.21-25,1.73-55.88,3.4S336,228.2,336,228s25-1.74,55.88-3.38S447.86,221.76,447.87,222Z"/><path id="Path_2185" data-name="Path 2185" class="cls-11" d="M448.4,231.73c0,.23-25,1.75-55.88,3.4s-55.88,2.81-55.95,2.59,25-1.74,55.87-3.4S448.38,231.51,448.4,231.73Z"/><path id="Path_2186" data-name="Path 2186" class="cls-11" d="M448.91,241.55c0,.22-25,1.74-55.88,3.4s-55.95,2.81-55.95,2.59,25-1.75,55.88-3.4S448.9,241.26,448.91,241.55Z"/><path id="Path_2187" data-name="Path 2187" class="cls-11" d="M449.44,251.22c0,.22-25,1.74-55.88,3.39s-55.95,2.82-56,2.59,25-1.74,55.88-3.4S449.42,251,449.44,251.22Z"/><rect id="Rectangle_585" data-name="Rectangle 585" class="cls-6" x="351.6" y="205.33" width="0.78" height="60.97" transform="translate(-12.09 19.13) rotate(-3.06)"/><path id="Path_2188" data-name="Path 2188" class="cls-11" d="M363.78,265.7c-.22,0-1.14-13.61-2-30.42s-1.44-30.45-1.22-30.47,1.13,13.62,2,30.43S364,265.69,363.78,265.7Z"/><path id="Path_2189" data-name="Path 2189" class="cls-11" d="M343.86,266.76c-.21,0-1.13-13.6-2-30.41s-1.44-30.5-1.23-30.5,1.14,13.6,2,30.43S344.09,266.76,343.86,266.76Z"/><path id="Path_2190" data-name="Path 2190" class="cls-11" d="M374.69,265.11c-.22,0-1.13-13.61-2-30.42s-1.45-30.39-1.23-30.39,1.13,13.61,2,30.44S374.91,265.1,374.69,265.11Z"/><path id="Path_2191" data-name="Path 2191" class="cls-11" d="M385.6,264.54c-.23,0-1.13-13.61-2-30.42s-1.45-30.45-1.23-30.47,1.13,13.6,2,30.42S385.82,264.52,385.6,264.54Z"/><path id="Path_2192" data-name="Path 2192" class="cls-11" d="M396.5,264c-.22,0-1.12-13.61-2-30.42s-1.46-30.45-1.23-30.47,1.13,13.61,2,30.42S396.73,263.93,396.5,264Z"/><path id="Path_2193" data-name="Path 2193" class="cls-11" d="M407.41,263.36c-.22,0-1.13-13.6-2-30.42s-1.45-30.45-1.23-30.45,1.13,13.6,2,30.42S407.64,263.36,407.41,263.36Z"/><path id="Path_2194" data-name="Path 2194" class="cls-11" d="M418.32,262.79c-.22,0-1.13-13.62-2-30.43s-1.45-30.45-1.23-30.46,1.13,13.61,2,30.42S418.53,262.77,418.32,262.79Z"/><path id="Path_2195" data-name="Path 2195" class="cls-11" d="M429.23,262.2c-.23,0-1.13-13.62-2-30.43s-1.46-30.45-1.23-30.46,1.13,13.61,2,30.43S429.45,262.18,429.23,262.2Z"/><path id="Path_2196" data-name="Path 2196" class="cls-11" d="M440.13,261.62c-.22,0-1.14-13.61-2-30.42s-1.44-30.45-1.22-30.47,1.13,13.6,2,30.42S440.36,261.61,440.13,261.62Z"/><path id="Path_2197" data-name="Path 2197" class="cls-5" d="M438.78,224.74a2.73,2.73,0,0,1-.8.13l-2.3.2-8.4.56c-7.1.45-16.93,1-27.76,1.55s-20.69.94-27.8,1.16-11.54.25-11.52,0l39.27-2,27.78-1.29,8.41-.32H438A2.51,2.51,0,0,1,438.78,224.74Z"/><path id="Path_2198" data-name="Path 2198" class="cls-5" d="M441,235.87c0,.22-18.05,1.23-40.35,2.25s-40.36,1.68-40.36,1.45,18-1.23,40.36-2.26S441,235.64,441,235.87Z"/><path id="Path_2199" data-name="Path 2199" class="cls-5" d="M442.24,245.6c0,.24-18,1.25-40.36,2.27s-40.35,1.66-40.35,1.44,18-1.24,40.35-2.25S442.22,245.39,442.24,245.6Z"/><path id="Path_2200" data-name="Path 2200" class="cls-11" d="M347.36,212.57a9.74,9.74,0,0,0,3.58,6.21,6.39,6.39,0,1,0,2.34-11.53"/><path id="Path_2201" data-name="Path 2201" class="cls-4" d="M347.09,212.56a5.09,5.09,0,1,0,4.81-5.36h0A5.1,5.1,0,0,0,347.09,212.56Z"/><path id="Path_2202" data-name="Path 2202" class="cls-4" d="M344.16,210.68a3.1,3.1,0,1,0,2.29-3.73,3,3,0,0,0-1.12.52A3.09,3.09,0,0,0,344.16,210.68Z"/><path id="Path_2203" data-name="Path 2203" class="cls-5" d="M347,213.51c0-.13.48-.1,1.1-.33a2.92,2.92,0,0,0,1.74-1.68,3.07,3.07,0,0,0-.23-2.43c-.31-.61-.67-.89-.61-1s.56,0,1.08.67a3.24,3.24,0,0,1,.52,3,3.09,3.09,0,0,1-2.36,2C347.43,213.86,347,213.61,347,213.51Z"/><path id="Path_2204" data-name="Path 2204" class="cls-5" d="M349.58,208.65c.1-.2.86,0,1.72-.19s1.44-.73,1.55-.59-.23,1.09-1.44,1.38S349.39,208.8,349.58,208.65Z"/><path id="Path_2205" data-name="Path 2205" class="cls-5" d="M350.35,216.38c-.22,0-.43-.95-1.24-1.7s-1.75-.91-1.75-1.13,1.22-.46,2.31.54S350.56,216.42,350.35,216.38Z"/><path id="Path_2206" data-name="Path 2206" class="cls-11" d="M433.34,209a9.82,9.82,0,0,0,3.59,6.21,6.4,6.4,0,1,0,2.34-11.54"/><path id="Path_2207" data-name="Path 2207" class="cls-6" d="M443.18,207.61a4.91,4.91,0,1,1-1.62-3.4A4.91,4.91,0,0,1,443.18,207.61Z"/><path id="Path_2208" data-name="Path 2208" class="cls-6" d="M445.79,205.5a2.94,2.94,0,1,1-1-2.05A2.92,2.92,0,0,1,445.79,205.5Z"/><path id="Path_2209" data-name="Path 2209" class="cls-5" d="M443.36,208.51a1.56,1.56,0,0,1-1.17.35,2.92,2.92,0,0,1-2.48-1.64,3.11,3.11,0,0,1,.18-3c.44-.66.94-.83,1-.76s-.23.42-.46,1a3,3,0,0,0,0,2.34,2.77,2.77,0,0,0,1.83,1.44C442.89,208.46,443.32,208.38,443.36,208.51Z"/><path id="Path_2210" data-name="Path 2210" class="cls-5" d="M440.39,204.1c.17.15-.56.93-1.77.79s-1.72-1.07-1.55-1.2.79.31,1.63.4S440.27,203.91,440.39,204.1Z"/><path id="Path_2211" data-name="Path 2211" class="cls-5" d="M440.44,211.61c-.22,0-.51-1.16.42-2.26s2.2-1,2.17-.76-.89.48-1.55,1.28S440.67,211.6,440.44,211.61Z"/><path id="Path_2212" data-name="Path 2212" class="cls-11" d="M252.72,353.9l91.45,11.65L343,332.07Z"/><rect id="Rectangle_586" data-name="Rectangle 586" class="cls-4" x="283.16" y="299.61" width="29.24" height="88.1" transform="translate(-69.45 611.83) rotate(-85.23)"/><path id="Path_2213" data-name="Path 2213" class="cls-5" d="M330.54,341.5c0,.21-14.74-.83-32.89-2.35s-32.82-2.92-32.81-3.1,14.75.82,32.89,2.33S330.56,341.28,330.54,341.5Z"/><path id="Path_2214" data-name="Path 2214" class="cls-5" d="M330.37,349.1c0,.22-14.74-.82-32.89-2.34s-32.82-2.92-32.81-3.1,14.73.82,32.89,2.32S330.39,348.88,330.37,349.1Z"/><path id="Path_2215" data-name="Path 2215" class="cls-9" d="M281.11,323.43l34,2.82-1.78,1.52,2.32,2-2.77,1.27,2.48,2.2-35.65-3,2.22-1.88-1.1-2,1.9-1Z"/><path id="Path_2216" data-name="Path 2216" class="cls-11" d="M200.86,270.69a4,4,0,1,1-6.8,0h-4.65a4,4,0,1,1-6.8,0H178a3.8,3.8,0,0,1,.56,2,4,4,0,1,1-7.36-2h-4.65a3.89,3.89,0,0,1,.56,2,4,4,0,0,1-7.9.5,4.17,4.17,0,0,1,0-.5,3.8,3.8,0,0,1,.56-2h-4.66a3.8,3.8,0,0,1,.56,2,4,4,0,0,1-7.9.5,4.17,4.17,0,0,1,0-.5,3.8,3.8,0,0,1,.56-2H143.7a4,4,0,1,1-6.8,0H134v81.67l71.4,3.93L202,270.69Z"/><g class="cls-12"><g id="Group_318" data-name="Group 318"><path id="Path_2217" data-name="Path 2217" class="cls-10" d="M199.82,268.45a4,4,0,1,1-6.8,0h-4.58a4,4,0,1,1-6.79,0H177a3.82,3.82,0,0,1,.56,2,4,4,0,1,1-7.36-2h-4.58a3.82,3.82,0,0,1,.56,2,4,4,0,0,1-7.9.51,4.34,4.34,0,0,1,0-.51,3.82,3.82,0,0,1,.56-2h-4.58a4,4,0,0,1-6.8,4.06,3.91,3.91,0,0,1-.55-2.06,3.81,3.81,0,0,1,.55-2H143a4,4,0,1,1-6.8,0h-2.87V350.2h68.05V268.45Z"/><path id="Path_2218" data-name="Path 2218" class="cls-11" d="M129.14,353.9c-.23,0-.61-19.79-.86-44.21s-.27-44.22,0-44.22.61,19.79.86,44.21S129.36,353.9,129.14,353.9Z"/><path id="Path_2219" data-name="Path 2219" class="cls-11" d="M140.07,353.79c-.24,0-.63-19.79-.87-44.21s-.27-44.22,0-44.22.6,19.79.85,44.21S140.28,353.79,140.07,353.79Z"/><path id="Path_2220" data-name="Path 2220" class="cls-11" d="M145.48,353.79c-.22,0-.61-19.79-.86-44.21s-.27-44.22,0-44.22.61,19.79.86,44.21S145.7,353.79,145.48,353.79Z"/><path id="Path_2221" data-name="Path 2221" class="cls-11" d="M156.52,353.79c-.22,0-.61-19.79-.86-44.21s-.26-44.22,0-44.22.61,19.79.86,44.21S156.75,353.79,156.52,353.79Z"/><path id="Path_2222" data-name="Path 2222" class="cls-11" d="M167.55,353.79c-.21,0-.6-19.79-.85-44.21s-.26-44.22,0-44.22.6,19.79.85,44.21S167.79,353.79,167.55,353.79Z"/><path id="Path_2223" data-name="Path 2223" class="cls-11" d="M178.65,353.79c-.22,0-.6-19.79-.85-44.21s-.27-44.22,0-44.22.6,19.79.85,44.21S178.82,353.79,178.65,353.79Z"/><path id="Path_2224" data-name="Path 2224" class="cls-11" d="M189.07,353.79c-.22,0-.61-19.79-.86-44.21s-.26-44.22,0-44.22.61,19.79.86,44.21S189.3,353.79,189.07,353.79Z"/><path id="Path_2225" data-name="Path 2225" class="cls-11" d="M199.54,353.79c-.21,0-.6-19.79-.85-44.21s-.28-44.22,0-44.22.6,19.79.85,44.21S199.76,353.79,199.54,353.79Z"/><path id="Path_2226" data-name="Path 2226" class="cls-11" d="M151,353.68c-.22,0-.61-19.8-.86-44.22s-.26-44.2,0-44.2.61,19.77.86,44.2S151.21,353.66,151,353.68Z"/><path id="Path_2227" data-name="Path 2227" class="cls-11" d="M161.9,353.56c-.21,0-.6-19.79-.85-44.21s-.28-44.2,0-44.22.6,19.79.85,44.22S162.12,353.56,161.9,353.56Z"/><path id="Path_2228" data-name="Path 2228" class="cls-11" d="M172.83,353.45c-.23,0-.62-19.79-.87-44.21S171.7,265,172,265s.61,19.79.86,44.22S173.05,353.45,172.83,353.45Z"/><path id="Path_2229" data-name="Path 2229" class="cls-11" d="M183.74,353.31c-.21,0-.6-19.79-.85-44.21s-.27-44.22,0-44.22.6,19.79.85,44.21S184,353.31,183.74,353.31Z"/><path id="Path_2230" data-name="Path 2230" class="cls-11" d="M194.17,353.9c-.23,0-.6-19.79-.85-44.21s-.28-44.22,0-44.22.6,19.79.85,44.21S194.44,353.9,194.17,353.9Z"/><path id="Path_2231" data-name="Path 2231" class="cls-11" d="M205.6,353.12c-.24,0-.61-19.8-.87-44.22s-.27-44.2,0-44.2.6,19.77.87,44.2S205.81,353.11,205.6,353.12Z"/><path id="Path_2232" data-name="Path 2232" class="cls-11" d="M217.32,342.75c0,.22-19.81.61-44.21.84s-44.22.26-44.22,0,19.79-.6,44.21-.85S217.3,342.54,217.32,342.75Z"/><path id="Path_2233" data-name="Path 2233" class="cls-11" d="M217.77,348.34c0,.22-19.79.61-44.21.84s-44.22.26-44.22,0,19.79-.61,44.22-.86S217.77,348.11,217.77,348.34Z"/><path id="Path_2234" data-name="Path 2234" class="cls-11" d="M217.21,331.83c0,.23-19.8.6-44.2.85s-44.22.26-44.22,0,19.79-.61,44.2-.84S217.19,331.58,217.21,331.83Z"/><path id="Path_2235" data-name="Path 2235" class="cls-11" d="M217.1,320.91c0,.22-19.81.59-44.22.84s-44.21.27-44.21,0,19.79-.59,44.21-.84S217.08,320.71,217.1,320.91Z"/><path id="Path_2236" data-name="Path 2236" class="cls-11" d="M217,310c0,.21-19.8.6-44.22.83s-44.21.27-44.21,0,19.78-.6,44.21-.85S217,309.75,217,310Z"/><path id="Path_2237" data-name="Path 2237" class="cls-11" d="M216.88,299.06c0,.23-19.8.6-44.22.85s-44.2.25-44.2,0,19.77-.6,44.2-.83S216.87,298.84,216.88,299.06Z"/><path id="Path_2238" data-name="Path 2238" class="cls-11" d="M216.76,288.12c0,.23-19.79.6-44.21.85s-44.2.26-44.2,0,19.77-.59,44.2-.84S216.76,287.92,216.76,288.12Z"/><path id="Path_2239" data-name="Path 2239" class="cls-11" d="M216.65,277.25c0,.22-19.79.61-44.21.84s-44.2.26-44.22,0,19.79-.6,44.22-.85S216.65,277,216.65,277.25Z"/><path id="Path_2240" data-name="Path 2240" class="cls-11" d="M216.65,272.84c0,.22-19.79.61-44.21.84s-44.2.27-44.22,0,19.79-.6,44.22-.85S216.65,272.6,216.65,272.84Z"/><path id="Path_2241" data-name="Path 2241" class="cls-11" d="M216.65,282.79c0,.24-19.79.61-44.21.86s-44.2.26-44.22,0,19.79-.61,44.22-.84S216.65,282.58,216.65,282.79Z"/><path id="Path_2242" data-name="Path 2242" class="cls-11" d="M216.65,293.63c0,.23-19.79.6-44.21.85s-44.2.26-44.22,0,19.79-.59,44.22-.84S216.65,293.41,216.65,293.63Z"/><path id="Path_2243" data-name="Path 2243" class="cls-11" d="M216.65,304.46c0,.23-19.79.61-44.21.85s-44.2.27-44.22,0,19.79-.59,44.22-.83S216.65,304.24,216.65,304.46Z"/><path id="Path_2244" data-name="Path 2244" class="cls-11" d="M216.65,315.31c0,.22-19.79.59-44.21.84s-44.2.26-44.22,0,19.79-.59,44.22-.84S216.65,315.08,216.65,315.31Z"/><path id="Path_2245" data-name="Path 2245" class="cls-11" d="M216.65,326.14c0,.22-19.79.59-44.21.84s-44.2.27-44.22,0,19.79-.6,44.22-.85S216.65,325.91,216.65,326.14Z"/><path id="Path_2246" data-name="Path 2246" class="cls-11" d="M216.65,337c0,.22-19.79.59-44.21.84s-44.2.26-44.22,0,19.79-.61,44.22-.86S216.65,336.75,216.65,337Z"/><path id="Path_2247" data-name="Path 2247" class="cls-1" d="M199.82,268.45a4,4,0,1,1-6.8,0h-4.58a4,4,0,1,1-6.79,0H177a3.82,3.82,0,0,1,.56,2,4,4,0,1,1-7.36-2h-4.58a3.82,3.82,0,0,1,.56,2,4,4,0,0,1-7.9.51,4.34,4.34,0,0,1,0-.51,3.82,3.82,0,0,1,.56-2h-4.58a4,4,0,0,1-6.8,4.06,3.91,3.91,0,0,1-.55-2.06,3.81,3.81,0,0,1,.55-2H143a4,4,0,1,1-6.8,0h-2.87V350.2h68.05V268.45Z"/></g></g><path id="Path_2249" data-name="Path 2249" class="cls-11" d="M162.63,280.36a9.82,9.82,0,0,0,3.59,6.21A6.4,6.4,0,1,0,168.56,275"/><path id="Path_2250" data-name="Path 2250" class="cls-6" d="M162.51,280.26a5.09,5.09,0,1,0,4.81-5.35h0A5.09,5.09,0,0,0,162.51,280.26Z"/><path id="Path_2251" data-name="Path 2251" class="cls-6" d="M159.59,278.39a3.1,3.1,0,1,0,3-3.22h-.09A3.12,3.12,0,0,0,159.59,278.39Z"/><path id="Path_2252" data-name="Path 2252" class="cls-5" d="M162.43,281.21c0-.12.48-.08,1.1-.31a3,3,0,0,0,1.74-1.69,3.1,3.1,0,0,0-.23-2.44c-.31-.59-.67-.88-.61-1s.56,0,1.07.66a3.19,3.19,0,0,1,.53,3.1,3.12,3.12,0,0,1-2.36,2C162.87,281.57,162.4,281.29,162.43,281.21Z"/><path id="Path_2253" data-name="Path 2253" class="cls-5" d="M165,276.35c.11-.2.87,0,1.73-.17s1.44-.73,1.63-.61-.24,1.1-1.45,1.38S164.85,276.52,165,276.35Z"/><path id="Path_2254" data-name="Path 2254" class="cls-5" d="M165.77,284.08c-.22,0-.44-.95-1.23-1.69s-1.76-.92-1.76-1.13,1.22-.45,2.31.54S166,284.13,165.77,284.08Z"/><path id="Path_2255" data-name="Path 2255" class="cls-5" d="M193.71,297.63c0,.22-10.87.4-24.25.4s-24.26-.18-24.26-.4,10.87-.4,24.26-.4S193.71,297.43,193.71,297.63Z"/><path id="Path_2256" data-name="Path 2256" class="cls-5" d="M193.71,302.68c0,.21-10.87.4-24.25.4s-24.26-.19-24.26-.4,10.87-.4,24.26-.4S193.71,302.44,193.71,302.68Z"/><path id="Path_2257" data-name="Path 2257" class="cls-5" d="M193.71,307.72c0,.22-10.87.4-24.25.4s-24.26-.19-24.26-.4,10.87-.4,24.26-.4S193.71,307.49,193.71,307.72Z"/><path id="Path_2258" data-name="Path 2258" class="cls-5" d="M193.71,312.75c0,.23-10.87.4-24.25.4s-24.26-.17-24.26-.4,10.87-.4,24.26-.4S193.71,312.54,193.71,312.75Z"/><path id="Path_2259" data-name="Path 2259" class="cls-5" d="M193.71,317.79c0,.24-10.87.4-24.25.4s-24.26-.17-24.26-.4,10.87-.4,24.26-.4S193.71,317.61,193.71,317.79Z"/><path id="Path_2260" data-name="Path 2260" class="cls-5" d="M193.71,322.84c0,.22-10.87.4-24.25.4s-24.26-.19-24.26-.4,10.87-.4,24.26-.4S193.71,322.62,193.71,322.84Z"/><path id="Path_2261" data-name="Path 2261" class="cls-5" d="M193.71,327.88c0,.22-10.87.4-24.25.4s-24.26-.18-24.26-.4,10.87-.4,24.26-.4S193.71,327.65,193.71,327.88Z"/></g><g id="freepik--Lamp--inject-168"><path id="Path_2262" data-name="Path 2262" class="cls-5" d="M73.93,560a1.64,1.64,0,0,1-1.55-1.25L17.14,348.42a1.65,1.65,0,1,1,3.19-.84L75.53,557.9a1.65,1.65,0,0,1-1.17,2h0a1.23,1.23,0,0,1-.42.07Z"/><path id="Path_2263" data-name="Path 2263" class="cls-5" d="M59.34,565.17A1.62,1.62,0,0,1,57.79,564L2.56,353.62a1.65,1.65,0,0,1,3.2-.84L61,563.11a1.63,1.63,0,0,1-1.16,2h0a2.1,2.1,0,0,1-.43,0Z"/><path id="Path_2264" data-name="Path 2264" class="cls-5" d="M9.19,344.49l-2.65-2,141.7-190.7,129.24,24.77-.62,3.25L149.64,155.46Z"/><rect id="Rectangle_587" data-name="Rectangle 587" class="cls-5" x="-27.36" y="251.28" width="234.29" height="3.31" transform="translate(-166.94 174.64) rotate(-53.5)"/><path id="Path_2265" data-name="Path 2265" class="cls-6" d="M144.71,160.58a9.3,9.3,0,1,0,.44-7.17A9.3,9.3,0,0,0,144.71,160.58Z"/><path id="Path_2266" data-name="Path 2266" class="cls-6" d="M271.38,165.93l-2.32-13.47,10-.75.73,13Z"/><g id="Group_319" data-name="Group 319" class="cls-13"><path id="Path_2267" data-name="Path 2267" class="cls-7" d="M271.38,165.93l-2.32-13.47,10-.75.73,13Z"/></g><path id="Path_2268" data-name="Path 2268" class="cls-6" d="M263.21,165,254,215l-23.28,66,131.22-18.91-53-57.67-22.12-42.85L263.21,165"/><path id="Path_2269" data-name="Path 2269" class="cls-6" d="M0,350.08a10.42,10.42,0,1,0,10.42-10.42A10.41,10.41,0,0,0,0,350.08Z"/><path id="Path_2270" data-name="Path 2270" class="cls-6" d="M32.38,602.05c0-.7-.11-1.38-.11-2.1a41.66,41.66,0,0,1,83.31-.4v.4c0,.72-.08,1.4-.11,2.1Z"/></g><g id="freepik--Character--inject-168"><path id="Path_2271" data-name="Path 2271" class="cls-14" d="M259.55,586.45c-.51.11-2.7,2.33.42,5.86s21.93,13.16,25.39,7.4-4.89-9.77-4.89-9.77Z"/><path id="Path_2272" data-name="Path 2272" class="cls-14" d="M280.21,580.25s19.4-2.15,27.32-1.14c8.58,1.1,17.69-3.23,23.1-9.16a31,31,0,0,0,6.81-13.72l12.42-8.63s1.33-29.35-18.24-24.61l-22.86.8s-45,7.45-52,13.06c0,0-8.48,8.24-10.94,11.42-.93,1.21-1.73,13.3,6.87,17.43,0,0-5.07,6.47-.6,10.14l2.1,1.55s-2.9,6.47-.17,8.32,24.32,8.4,30.45,4.13-1-9.19-4.22-9.63"/><path id="Path_2273" data-name="Path 2273" class="cls-15" d="M256,564.55a21.75,21.75,0,0,1,2.53.28c1.63.2,4,.5,6.92.72,1.46.09,3.1.18,4.78.21s3.55,0,5.53.14a11.36,11.36,0,0,1,5.94,1.88,6.58,6.58,0,0,1,2.9,6,5.06,5.06,0,0,1-1.74,3.1,8.71,8.71,0,0,1-2.93,1.63,26.64,26.64,0,0,1-6.07,1.13,54.54,54.54,0,0,1-10.38-.2c-2.94-.31-5.28-.7-6.9-1a13.51,13.51,0,0,1-2.51-.53,19.64,19.64,0,0,1,2.54.22c1.65.19,4,.48,6.93.72a60.37,60.37,0,0,0,10.24,0,26.71,26.71,0,0,0,5.88-1.14,8.36,8.36,0,0,0,2.68-1.47,4.37,4.37,0,0,0,1.45-2.59,5.82,5.82,0,0,0-2.56-5.24,11,11,0,0,0-5.54-1.78c-1.89-.17-3.75-.11-5.48-.2s-3.35-.17-4.82-.33c-2.94-.28-5.28-.65-6.91-1a12.27,12.27,0,0,1-2.48-.59Z"/><path id="Path_2274" data-name="Path 2274" class="cls-15" d="M254.44,550.54a16.46,16.46,0,0,1,2.53.28c1.56.21,4,.52,6.88.77s6.38.45,10.24.45a13.77,13.77,0,0,1,6.13.92,4.86,4.86,0,0,1,2.33,2.5,6.26,6.26,0,0,1,.33,3.48,8.36,8.36,0,0,1-3.93,5.38,13.43,13.43,0,0,1-5.9,1.91,58.37,58.37,0,0,1-10.32-.48l-6.89-.7a14.29,14.29,0,0,1-2.53-.37,15.39,15.39,0,0,1,2.54,0l6.93.45a64.3,64.3,0,0,0,10.2.29,12.86,12.86,0,0,0,5.55-1.84,7.55,7.55,0,0,0,3.54-4.85,4.66,4.66,0,0,0-2.22-5.14,13,13,0,0,0-5.76-.86,93.17,93.17,0,0,1-10.29-.63c-2.92-.32-5.26-.72-6.87-1A13.94,13.94,0,0,1,254.44,550.54Z"/><path id="Path_2275" data-name="Path 2275" class="cls-15" d="M264.45,552.24a26.34,26.34,0,0,1-1.75-3.58,21.63,21.63,0,0,1-1.86-3.53c.15-.15,1.55,1.12,2.57,3.1a6.65,6.65,0,0,1,1,4Z"/><path id="Path_2276" data-name="Path 2276" class="cls-14" d="M323.81,524.17l-18.35-2.44s-51.84-10.57-52.35-9.2-3.1,1.85-1.15,7.4,31.83,10.48,33.17,12.25,2.3,12.06,14,16.79,19,3.1,19,3.1"/><path id="Path_2277" data-name="Path 2277" class="cls-15" d="M318.19,552.1l-.39.11-1.2.17a27.89,27.89,0,0,1-4.66,0,39.87,39.87,0,0,1-7.18-1.27,39,39,0,0,1-9-3.51,21,21,0,0,1-8.09-8.44,48.17,48.17,0,0,1-2.48-6,6.16,6.16,0,0,0-.34-.68,1.54,1.54,0,0,0-.54-.34c-.51-.21-1-.39-1.56-.55-1.08-.34-2.2-.63-3.35-.93-4.56-1.2-9.39-2.34-14.32-3.78-2.47-.73-5-1.56-7.45-2.53a24.25,24.25,0,0,1-3.65-1.8,9.31,9.31,0,0,1-1.68-1.32,3.57,3.57,0,0,1-.63-1,10.17,10.17,0,0,1-.35-1,7.56,7.56,0,0,1-.24-4.24,5,5,0,0,1,1.11-1.83,3,3,0,0,0,.52-.71l.12-.2a.6.6,0,0,1,.3-.19H254a77.33,77.33,0,0,1,7.76,1c5.08.83,9.95,1.73,14.59,2.62,9.31,1.75,17.6,3.43,24.6,4.87,1.74.34,3.42.75,5,1l4.5.62,7.19,1,4.55.68,1.18.2.4.09a1,1,0,0,1-.42,0l-1.18-.11-4.58-.54-7.22-.88-4.52-.58c-1.55-.25-3.24-.62-5-.94l-24.63-4.66c-4.65-.85-9.51-1.75-14.57-2.58-2.53-.39-5.14-.84-7.76-1h-.63a.24.24,0,0,0-.07-.18h0c.6.21.15,0,.29.14h0a3,3,0,0,1-.63.91,4.45,4.45,0,0,0-1,1.56,6.85,6.85,0,0,0,.27,3.75,3.54,3.54,0,0,0,.8,1.65,8.2,8.2,0,0,0,1.56,1.18,24.43,24.43,0,0,0,3.52,1.73,76.31,76.31,0,0,0,7.37,2.52c4.9,1.46,9.72,2.61,14.28,3.82,1.15.31,2.28.62,3.39,1a13.33,13.33,0,0,1,1.64.59,1.92,1.92,0,0,1,.84.59,4,4,0,0,1,.42.82,46.41,46.41,0,0,0,2.44,6,20.25,20.25,0,0,0,7.76,8.26,39.65,39.65,0,0,0,8.84,3.57,40.87,40.87,0,0,0,7.1,1.38,31.55,31.55,0,0,0,4.56.16h1.2Z"/><path id="Path_2278" data-name="Path 2278" class="cls-15" d="M274.56,579.33a6.12,6.12,0,0,1,1.91.09,18.22,18.22,0,0,1,5,1.48,16.23,16.23,0,0,1,3.1,1.86,5.54,5.54,0,0,1,2.3,3.6,4.48,4.48,0,0,1-2.3,4.1,8.59,8.59,0,0,1-4.94,1A91.27,91.27,0,0,1,262.7,589a40.86,40.86,0,0,1-5-1.55,8.5,8.5,0,0,1-1.75-.76,9.51,9.51,0,0,1,1.84.45c1.18.34,2.87.81,5,1.27a109.9,109.9,0,0,0,16.84,2.26,8,8,0,0,0,4.49-.89,3.7,3.7,0,0,0,2-3.37,4.84,4.84,0,0,0-2-3.1,15.67,15.67,0,0,0-3-1.86A27.08,27.08,0,0,0,274.56,579.33Z"/><path id="Path_2279" data-name="Path 2279" class="cls-6" d="M409.52,473.37s23-37.85,28.15-62.82,31.87-64.6,40.54-74.94,43.08-22.38,43.08-22.38l12.7-6.86,98.39-8.64s65.45,6.89,85.27,25S753,382.14,753,402.79s20,199.67,20,199.67l-242.46-.31,5.43-88.25s-29.29-19.81-37-37-3.45-8.61-3.45-8.61-27.49,58.44-37,65.33-119.6,40.67-119.6,40.67l-15.07-57.78Z"/><path id="Path_2280" data-name="Path 2280" class="cls-6" d="M695.78,329.92c-2.65.82-35.5,85.64-37.81,93.36s0,56.33,0,56.33l10.86,20.06s-3.1,14.66-.77,21.61l-48.62,9.31s-12.33-8.49-23.91,0l-57.43,4.86s16.84.19,11.82,26c-4.9,25.3-8.64,30.85-8.64,30.85l201.55-4.65s22.4-1.12,19-44.18-13-161.82-13-161.82S734.1,318,695.78,329.92Z"/><path id="Path_2281" data-name="Path 2281" class="cls-5" d="M657.52,472.82a3.93,3.93,0,0,1-.48-1l-1.23-3.1c-.53-1.32-1.16-2.95-1.78-4.89s-1.45-4.1-2.1-6.56-1.56-5.16-2.16-8.09-1.34-6.07-2-9.31A172.63,172.63,0,0,1,645.44,418a175.6,175.6,0,0,1,.67-22c.4-3.35.72-6.55,1.27-9.51.25-1.55.45-2.92.73-4.3s.56-2.67.82-3.93c.5-2.5,1.13-4.66,1.65-6.7s1-3.64,1.44-5,.76-2.33,1-3.1a10.12,10.12,0,0,1,.4-1.09,4.75,4.75,0,0,1-.25,1.13c-.22.79-.51,1.85-.87,3.1s-.87,3.1-1.3,5-1.07,4.19-1.55,6.71c-.25,1.25-.5,2.56-.76,3.92s-.45,2.8-.68,4.27c-.52,3-.83,6.21-1.2,9.5a164.54,164.54,0,0,0,1.69,43.65c.6,3.32,1.16,6.47,1.88,9.31s1.38,5.62,2,8.09,1.4,4.65,2,6.58,1.17,3.58,1.65,4.92l1.08,3.1a8,8,0,0,1,.36,1.18Z"/><path id="Path_2282" data-name="Path 2282" class="cls-5" d="M727.65,564.82a7.23,7.23,0,0,1-.53-.59l-1.34-1.79c-.57-.79-1.29-1.74-2.16-2.79s-1.81-2.32-3-3.6-2.39-2.73-3.81-4.18-3-3-4.66-4.55A115.41,115.41,0,0,0,700.56,538a117.42,117.42,0,0,0-12.79-7.57c-2.06-1-4-2-5.9-2.73s-3.63-1.56-5.25-2.1-3.1-1.08-4.42-1.56-2.44-.77-3.37-1l-2.14-.64a2.93,2.93,0,0,1-.75-.27,3.34,3.34,0,0,1,.78.12l2.19.48c1,.22,2.1.5,3.43.9s2.84.81,4.47,1.43,3.45,1.2,5.32,2,3.88,1.7,6,2.68A107.15,107.15,0,0,1,701,537.31a110.72,110.72,0,0,1,11.64,9.4c1.66,1.56,3.25,3.1,4.66,4.66s2.65,2.93,3.77,4.27,2,2.61,2.9,3.69a32.16,32.16,0,0,1,2,2.89c.5.81.9,1.37,1.23,1.88A3.52,3.52,0,0,1,727.65,564.82Z"/><path id="Path_2283" data-name="Path 2283" class="cls-5" d="M744.61,553.53c-.13.11-1.91-1.92-5.26-4.65a53.23,53.23,0,0,0-6.21-4.35A52.58,52.58,0,0,0,715.83,538a54.61,54.61,0,0,0-7.54-.89c-4.33-.17-7,.16-7,0a8.49,8.49,0,0,1,1.88-.31,20.34,20.34,0,0,1,2.22-.2,29,29,0,0,1,2.95,0,50.42,50.42,0,0,1,7.66.73A50.4,50.4,0,0,1,733.53,544a50.05,50.05,0,0,1,6.21,4.53,29.34,29.34,0,0,1,2.15,2,20.75,20.75,0,0,1,1.56,1.55,8.7,8.7,0,0,1,1.16,1.48Z"/><path id="Path_2284" data-name="Path 2284" class="cls-5" d="M726,525.14c-.09.14-2.47-1.75-6.82-3.9a36.31,36.31,0,0,0-3.63-1.55c-1.3-.56-2.76-1-4.28-1.46a49.27,49.27,0,0,0-20.6-1.41c-1.55.26-3.1.48-4.44.85a38.71,38.71,0,0,0-3.82,1.09c-4.65,1.55-7.2,3.1-7.28,2.92a10.25,10.25,0,0,1,1.82-1.1,17.74,17.74,0,0,1,2.22-1.12,30.81,30.81,0,0,1,3.1-1.24,33.9,33.9,0,0,1,3.83-1.18,43.4,43.4,0,0,1,4.5-1,47.26,47.26,0,0,1,20.91,1.44,39.14,39.14,0,0,1,4.33,1.55,34.5,34.5,0,0,1,3.65,1.69,31.21,31.21,0,0,1,2.85,1.67,15.13,15.13,0,0,1,2.05,1.4,9.15,9.15,0,0,1,1.6,1.31Z"/><path id="Path_2285" data-name="Path 2285" class="cls-5" d="M608.1,588.75a71.9,71.9,0,0,0,1.43-8.63,55.57,55.57,0,0,0-.08-9.48,75.29,75.29,0,0,0-2-11.44,80.09,80.09,0,0,0-3.86-10.86,59.1,59.1,0,0,0-4.66-8.29,80.18,80.18,0,0,0-5.48-6.85,15.54,15.54,0,0,1,1.79,1.55,21.55,21.55,0,0,1,1.89,2l1.12,1.32c.39.5.74,1,1.15,1.55a53.64,53.64,0,0,1,4.81,8.3,67.18,67.18,0,0,1,6,22.63,53.07,53.07,0,0,1-.09,9.6c-.08.68-.16,1.32-.22,1.94l-.34,1.7a19,19,0,0,1-.65,2.7,13.91,13.91,0,0,1-.75,2.2Z"/><path id="Path_2286" data-name="Path 2286" class="cls-5" d="M574.31,530.5a1.39,1.39,0,0,1-.09-.45,12.11,12.11,0,0,0-.22-1.32c-.17-1.23-.42-2.93-.73-5.11-.64-4.44-1.46-10.86-2.42-18.84-1.91-15.91-4.19-37.95-6-62.35s-2.71-46.56-3.1-62.57c-.21-8-.32-14.5-.35-19v-6.5a.24.24,0,0,1-.19-.27.25.25,0,0,1,.28-.19.23.23,0,0,1,.18.28.24.24,0,0,1-.18.18v1.35c0,1.23.09,2.95.17,5.15.14,4.54.34,11,.59,19,.57,16,1.55,38.14,3.37,62.54s4,46.41,5.74,62.33c.9,7.92,1.65,14.34,2.16,18.86.25,2.19.43,3.9.57,5.14a11.75,11.75,0,0,0,.14,1.33A3.47,3.47,0,0,1,574.31,530.5Z"/><path id="Path_2287" data-name="Path 2287" class="cls-5" d="M495.13,469.36a17.26,17.26,0,0,1-1.05-2.37c-.62-1.56-1.55-3.78-2.72-6.52-2.33-5.48-5.8-13-10-21.05s-7.92-15.29-10.73-20.69c-1.35-2.67-2.43-4.83-3.1-6.33a18.77,18.77,0,0,1-1-2.39,13.91,13.91,0,0,1,1.32,2.23l3.37,6.21c2.82,5.25,6.8,12.42,11,20.6s7.56,15.63,9.76,21.19c1.1,2.78,2,5,2.48,6.63A15.38,15.38,0,0,1,495.13,469.36Z"/><path id="Path_2288" data-name="Path 2288" class="cls-5" d="M482.75,440.68a4.83,4.83,0,0,1-1.41-.27c-.89-.21-2.16-.59-3.73-1.1A91.57,91.57,0,0,1,454.67,428c-1.35-.93-2.42-1.72-3.1-2.3a5.58,5.58,0,0,1-1.06-.94,51,51,0,0,1,4.52,2.76,123.08,123.08,0,0,0,11.11,6.21c4.47,2.19,8.63,3.91,11.69,5.06a51.78,51.78,0,0,1,4.92,1.94Z"/><path id="Path_2289" data-name="Path 2289" class="cls-5" d="M461.93,493.68a8.64,8.64,0,0,1-1.67-1c-1-.7-2.55-1.69-4.46-2.84a91.74,91.74,0,0,0-32.45-12.15c-2.2-.39-4-.64-5.23-.79a8.87,8.87,0,0,1-1.92-.33,9.08,9.08,0,0,1,1.95,0,44.87,44.87,0,0,1,5.3.53,81.5,81.5,0,0,1,32.75,12.23c1.87,1.24,3.35,2.3,4.33,3.1a11.23,11.23,0,0,1,1.41,1.26Z"/><path id="Path_2290" data-name="Path 2290" class="cls-5" d="M629.75,297.86c0,.43,0,.84-.09,1.26q-.17,1.35-.42,3.6c-.4,3.1-1,7.64-1.91,13.19A167.37,167.37,0,0,1,623,335.22a89.6,89.6,0,0,1-9.73,22.16,67.6,67.6,0,0,1-8.08,10.37l-.31.34-.3-.38a41,41,0,0,0-14.73-12.21,39.07,39.07,0,0,0-7.76-2.86,34.27,34.27,0,0,0-7.06-.95A29.12,29.12,0,0,0,565,353.11c-2.25.79-3.45,1.38-3.48,1.3a5,5,0,0,1,.86-.45,19.66,19.66,0,0,1,2.53-1.12A28.36,28.36,0,0,1,575,351.18a34.83,34.83,0,0,1,7.2.87,39.76,39.76,0,0,1,7.92,2.83,41.29,41.29,0,0,1,15.05,12.42h-.6a69.41,69.41,0,0,0,8-10.25,91.56,91.56,0,0,0,9.73-21.95,182.2,182.2,0,0,0,4.5-19.18c1-5.53,1.66-10,2.16-13.15.23-1.55.43-2.68.57-3.57a5.44,5.44,0,0,1,.22-1.33Z"/><path id="Path_2291" data-name="Path 2291" class="cls-6" d="M631.07,298.84l-15-19.82-16.25.51-52.8,27.9Z"/><path id="Path_2292" data-name="Path 2292" class="cls-5" d="M561.44,354.41a4,4,0,0,1-.85,0,18.25,18.25,0,0,1-2.44-.4,30.62,30.62,0,0,1-8.34-3.57,18.15,18.15,0,0,0-5.66-2.35,17,17,0,0,0-7,0,16.42,16.42,0,0,0-11.72,10.2l-.83,2.27v-4.31c.18-12.24.2-23.29.7-31.34.23-4,.54-7.25.88-9.47.14-1.12.31-2,.44-2.55a5.5,5.5,0,0,1,.21-.87c.08,0-.14,1.23-.34,3.47s-.46,5.44-.62,9.45c-.35,8-.26,19.07-.46,31.32v1.91l-.78-.16a17.07,17.07,0,0,1,12.32-10.63A17.37,17.37,0,0,1,550,350a33,33,0,0,0,8.14,3.75C560.26,354.25,561.46,354.33,561.44,354.41Z"/><path id="Path_2293" data-name="Path 2293" class="cls-14" d="M616.12,183V302.09a28.83,28.83,0,0,1-6.78,18.62h0a87.43,87.43,0,0,1-23.9,19.79l-24,13.52-19.87-17.79a28.88,28.88,0,0,1-9.6-20.41c-.35-8.66-.35-17.4-.35-17.4S498,296,494.83,262.83c-1.56-15.61-2-47.6-2-77.1A64.53,64.53,0,0,1,552,121.28l1-.08a61.68,61.68,0,0,1,63.16,60.17C616.12,181.92,616.13,182.48,616.12,183Z"/><path id="Path_2294" data-name="Path 2294" class="cls-15" d="M531.53,297.93s21.13,0,42.28-15.9c0,0-8.26,24.74-41.64,24.5Z"/><path id="Path_2295" data-name="Path 2295" class="cls-5" d="M504,208a4.78,4.78,0,0,0,5,4.41,4.56,4.56,0,0,0,4.54-4.56s0-.07,0-.1a4.75,4.75,0,0,0-5-4.41A4.55,4.55,0,0,0,504,207.9a.41.41,0,0,0,0,.11Z"/><path id="Path_2296" data-name="Path 2296" class="cls-5" d="M501.26,199.1c.64.56,4-2.39,9.12-2.79s9.06,1.83,9.56,1.16c.24-.31-.44-1.37-2.18-2.42a13,13,0,0,0-7.76-1.69,12.35,12.35,0,0,0-7.18,3C501.39,197.69,501,198.84,501.26,199.1Z"/><path id="Path_2297" data-name="Path 2297" class="cls-5" d="M552.52,206a4.75,4.75,0,0,0,5,4.4,4.55,4.55,0,0,0,4.55-4.57v-.08a4.76,4.76,0,0,0-5-4.41,4.56,4.56,0,0,0-4.54,4.58Z"/><path id="Path_2298" data-name="Path 2298" class="cls-5" d="M551.51,195.9c.63.56,4-2.39,9.11-2.79s9.06,1.83,9.56,1.15c.25-.3-.44-1.37-2.17-2.41a13.08,13.08,0,0,0-7.76-1.7,12.54,12.54,0,0,0-7.19,3C551.63,194.48,551.17,195.64,551.51,195.9Z"/><path id="Path_2299" data-name="Path 2299" class="cls-5" d="M536.11,235.35c0-.3-3.21-.59-8.41-.82-1.3,0-2.56-.18-2.86-1a6.79,6.79,0,0,1,.54-4c1-3.26,2-6.66,3.1-10.24,4.18-14.58,7.1-26.51,6.5-26.67s-4.45,11.52-8.63,26.08c-1,3.6-2,7-2.87,10.29a7.48,7.48,0,0,0-.24,5.17,3.23,3.23,0,0,0,2.3,1.74,8.75,8.75,0,0,0,2.23.12C532.91,235.81,536.13,235.56,536.11,235.35Z"/><path id="Path_2300" data-name="Path 2300" class="cls-5" d="M551.43,237.56c-.84,0-.39,5.56-4.81,9.89s-10.36,4.21-10.34,5c0,.34,1.41,1,3.91.83a13.85,13.85,0,0,0,8.65-3.85,12,12,0,0,0,3.68-8.26C552.53,238.82,551.8,237.5,551.43,237.56Z"/><path id="Path_2301" data-name="Path 2301" class="cls-5" d="M548.53,176c.62,1.35,5.66.26,11.7.5s11,1.45,11.72.14c.31-.63-.64-1.85-2.7-3.1a20.38,20.38,0,0,0-17.85-.49C549.27,174.19,548.26,175.37,548.53,176Z"/><path id="Path_2302" data-name="Path 2302" class="cls-5" d="M501.92,184.12c1,1.09,4.4-.4,8.63-.8s7.87.12,8.6-1.15c.31-.62-.34-1.74-2-2.7a12,12,0,0,0-7.19-1.32,11.82,11.82,0,0,0-6.69,2.9C501.87,182.4,501.5,183.64,501.92,184.12Z"/><path id="Path_2303" data-name="Path 2303" class="cls-5" d="M577.06,149.6l.18.13a26.27,26.27,0,0,1,11.18,16.1l.14.66c2.08,9.32,2.65,19,4.82,28.36s1.77,16.49,11.13,18.63a12.42,12.42,0,0,0,13-5.29,7.94,7.94,0,0,0,.83-4.44c-.11-23,4.51-31.95,2.48-55.88a20.17,20.17,0,0,0-9.72-15.71c-5.3-3.18-11.73-6.39-17.07-3.3S582.36,143,578.4,147.75"/><path id="Path_2304" data-name="Path 2304" class="cls-14" d="M606.16,199c.56-.28,22.26-8.63,23.42,14.14s-22,19.21-22,18.62S606.16,199,606.16,199Z"/><path id="Path_2305" data-name="Path 2305" class="cls-15" d="M614.09,222.71c.09-.08.4.26,1.09.53a3.94,3.94,0,0,0,3-.1c2.36-1,4.19-4.92,4.1-9a13.11,13.11,0,0,0-1.4-5.62,4.52,4.52,0,0,0-3.1-2.88,2,2,0,0,0-2.28,1.21c-.28.65-.11,1.08-.23,1.13s-.5-.36-.38-1.3a2.68,2.68,0,0,1,.83-1.48,3.15,3.15,0,0,1,2.17-.68,5.61,5.61,0,0,1,4.32,3.32,13.44,13.44,0,0,1,1.69,6.21c.09,4.66-2,9-5.28,10.12a4.19,4.19,0,0,1-3.66-.42C614.15,223.25,614,222.76,614.09,222.71Z"/><path id="Path_2306" data-name="Path 2306" class="cls-5" d="M595.05,132.28c4.84-9.54-11.55-21.32-23-23.93s-25.82,4.08-36.66,8.71c-6.84,2.92-13.58,6.75-21,7-5,.21-9.87-1.2-14.7-2.47s-9.83-2.42-14.76-1.66-9.83,3.8-11.32,8.57,1.71,10.86,6.69,11.11c-6.56-2.94-15.29,2.34-15.71,9.53s7.58,13.47,14.46,11.38c-3.43-2.19-8.06,2.26-7.32,6.2s4.66,6.65,8.46,8c9.83,3.37,20.76,1.13,30.29-3s18.17-10,27.6-14.34,25.17-12,35.2-9.43c7.38,1.94,13.1,10.19,17.07,7.93a14,14,0,0,0,6.33-10.86,39.77,39.77,0,0,0-1.55-12.88"/><path id="Path_2307" data-name="Path 2307" class="cls-4" d="M477.45,139.25c.19-.12,1.3,1.55,4,4a31.44,31.44,0,0,0,13.28,7.06,28.84,28.84,0,0,0,21.58-2.66c7.43-4.1,13.47-11.57,20.53-18.71s15.6-12.83,24.51-14.38,17.36,1,22.32,5.71A19.92,19.92,0,0,1,590,134.56a15.75,15.75,0,0,1-.63,4.27c-.35.92-.56,1.38-.64,1.35a34.87,34.87,0,0,0,.39-5.59,19.63,19.63,0,0,0-6.55-13.1c-4.66-4.19-12.64-6.44-20.89-4.85s-16.41,6.89-23.29,14-13.14,14.67-21.11,19a31.05,31.05,0,0,1-36.49-5.6,22.35,22.35,0,0,1-2.65-3.34C477.62,139.75,477.39,139.3,477.45,139.25Z"/><path id="Path_2308" data-name="Path 2308" class="cls-4" d="M611.87,197.52c-.08.08-1-.54-2-2.28a15.35,15.35,0,0,1-1.8-8.14c-.11-7.35,5.71-15.74,5.7-25.9a22.92,22.92,0,0,0-3.63-13.35,17.5,17.5,0,0,0-9.05-6.6,14.91,14.91,0,0,0-7.67-.4c-1.8.45-2.73,1-2.84.78s.75-.87,2.59-1.56a14.41,14.41,0,0,1,8.35-.29,18.41,18.41,0,0,1,10.31,6.94A24.1,24.1,0,0,1,616,161.28a41.1,41.1,0,0,1-3.2,14.66,43.72,43.72,0,0,0-3.1,11.32C609,194,612.18,197.38,611.87,197.52Z"/><rect id="Rectangle_588" data-name="Rectangle 588" class="cls-5" x="600.49" y="213.53" width="27.05" height="11.69" rx="2.14" transform="translate(35.77 520.64) rotate(-47.18)"/><path id="Path_2309" data-name="Path 2309" class="cls-5" d="M753,407.9a7,7,0,0,0,.09.91c.09.61.11,1.55.2,2.67.17,2.38.4,5.87.73,10.4.62,9.13,1.55,22.46,2.65,39.36s2.44,37.38,4,60.77q.57,8.78,1.18,18.08c.24,3.1.36,6.21.5,9.47a43.24,43.24,0,0,1,0,4.83,47.12,47.12,0,0,1-.26,4.89l-.61,4.93c-.35,1.63-.71,3.28-1,4.92a48.17,48.17,0,0,1-1.55,4.86,26.54,26.54,0,0,1-2.14,4.66c-3.26,6-8.34,11.68-15.39,14H540.8l.14-.52,4.38-15.6q1.09-3.86,2.15-7.76a52.79,52.79,0,0,0,1.8-7.65,33.23,33.23,0,0,0-1.33-15.24,18.66,18.66,0,0,0-3.63-6.55,10.69,10.69,0,0,0-6.21-3.65l-3.19-.5,3.1-.26,57.36-4.82h-.17a19.58,19.58,0,0,1,12.41-3.8,24.85,24.85,0,0,1,12,3.83h-.26L668,520.94l-.22.37a20.58,20.58,0,0,1-.84-5.73,48.75,48.75,0,0,1,.16-5.54,86.22,86.22,0,0,1,1.47-10.49v.18c-3.9-7.28-7.46-14-10.77-20.08v-.09c-.76-17.9-1-32-.9-41.63,0-4.81.23-8.51.48-11a18.59,18.59,0,0,1,.42-2.79c.14-.63.22-.94.22-.94a4.39,4.39,0,0,1-.16,1,20.26,20.26,0,0,0-.35,2.79c-.22,2.49-.36,6.21-.38,11,0,9.62.28,23.73,1.1,41.61v-.09c3.31,6.13,6.91,12.77,10.87,20h0v.09a88.23,88.23,0,0,0-1.47,10.49,43.93,43.93,0,0,0-.14,5.5,19.8,19.8,0,0,0,.82,5.56l.09.31H668l-48.61,9.31h-.13l-.12-.08A24,24,0,0,0,607.57,527a18.7,18.7,0,0,0-11.9,3.68h-.19l-57.33,4.87v-.76a11.35,11.35,0,0,1,6.7,3.88,19.53,19.53,0,0,1,3.79,6.83,34,34,0,0,1,1.38,15.6,54.27,54.27,0,0,1-1.81,7.76q-1.08,3.84-2.16,7.76-2.17,7.75-4.36,15.52l-.39-.51h48.11l151.85.11h0a23.43,23.43,0,0,0,8.8-5.43,32.72,32.72,0,0,0,6.13-8.22c.82-1.55,1.41-3.1,2.11-4.65a38.89,38.89,0,0,0,1.55-4.8c.5-1.6.7-3.24,1.06-4.86s.4-3.27.6-4.89a46,46,0,0,0,.28-4.84,42.7,42.7,0,0,0,0-4.8c-.14-3.18-.25-6.32-.48-9.42q-.57-9.32-1.15-18.1c-1.55-23.39-2.78-43.88-3.85-60.8s-1.87-30.24-2.45-39.36c-.26-4.54-.48-8-.62-10.42,0-1.16-.11-2.05-.14-2.67S753,407.9,753,407.9Z"/><path id="Path_2310" data-name="Path 2310" class="cls-5" d="M709.08,323.32a30.26,30.26,0,0,1-2.76,1.72,65,65,0,0,0-7.19,5.16,84,84,0,0,0-18.62,22.25,182.93,182.93,0,0,0-12.42,26.39l-3.23,8.26-.9,2.25a2.78,2.78,0,0,1-.36.76,3.28,3.28,0,0,1,.2-.82c.2-.61.47-1.37.77-2.3.68-2,1.67-4.85,3-8.37A166,166,0,0,1,679.81,352a80.9,80.9,0,0,1,18.94-22.29,55.73,55.73,0,0,1,7.38-5c.91-.54,1.67-.86,2.15-1.11a3.24,3.24,0,0,1,.8-.31Z"/><g id="Group_320" data-name="Group 320" class="cls-13"><path id="Path_2311" data-name="Path 2311" class="cls-7" d="M648.33,382.6A103,103,0,0,0,639.64,429c.59,15.77,2.48,31.59.93,47.31s-7,31.76-18.72,42.33a15.35,15.35,0,0,0-3.79,4.2,4.29,4.29,0,0,0,.73,5.2,6.21,6.21,0,0,0,4.88.51c11.22-2,22.58-3.35,33.82-5.29,2.41-.42,10.49-2,10.49-2a43.36,43.36,0,0,1-.68-9.31c.36-2.81,1.46-12.42,1.46-12.42a16.64,16.64,0,0,0-2.16-4,91.64,91.64,0,0,1-9.31-23.89c-3.84-7.83-5.56-15.72-7.34-23.05-4.92-20.34-4.78-40.35-1.65-66.13"/></g><g id="Group_321" data-name="Group 321" class="cls-13"><path id="Path_2312" data-name="Path 2312" class="cls-7" d="M525.29,359.42c.92,2.33,1.85,4.66,2.76,7a2.83,2.83,0,0,0,1.34,1.76c1.38.52,2.48-1.17,3.1-2.5A17.92,17.92,0,0,1,546.26,356c4.65-.55,9.56.82,14.2-.14a62.84,62.84,0,0,0-12.82-6.38,21.19,21.19,0,0,0-14.08-.14,13,13,0,0,0-8.49,10.6"/></g><g id="Group_322" data-name="Group 322" class="cls-13"><path id="Path_2313" data-name="Path 2313" class="cls-7" d="M563.66,353.54a76.28,76.28,0,0,1,16.44,1.55,25.73,25.73,0,0,1,14.08,8.1c3.75,4.58,5.15,10.59,6.67,16.3.3,1.1.82,2.41,1.94,2.53a2.74,2.74,0,0,0,1.86-.73C614,374.46,620.08,364,623.43,353s4.13-22.63,4.32-34.14c-4.44,7.93-6.36,17-9.31,25.56s-7.25,17.26-14.86,22.23a7.4,7.4,0,0,0-1.74-5.45,16.42,16.42,0,0,0-4.51-3.7,43.16,43.16,0,0,0-34.55-4.23"/></g><path id="Path_2314" data-name="Path 2314" class="cls-14" d="M539.54,536.37h-19s-42.89-15.52-51.7-14c-7.95,1.33-37,20.64-42.72,24.47a3.63,3.63,0,0,0-1.38,1.76h0a6.2,6.2,0,0,0,3.48,7.91l.59.25-.25.87a10.26,10.26,0,0,0-.45,3.48,4.19,4.19,0,0,0,7.76,1.8l-1.09,1.95a4.68,4.68,0,0,0-.6,2.61l.09,1.76a4.78,4.78,0,0,0,3.29,4.28h0a4.78,4.78,0,0,0,5-1.38c3.69-4,11.66-12.17,17.07-13.07a126.24,126.24,0,0,1,17.6-.88,6,6,0,0,1,5.54,3.8h0c-3.2.23-25.48,11.85-33.37,16a8.43,8.43,0,0,0-4.58,6.35c-.29,2.47,1,5,5.84,3.91C461.1,585.83,480,577.17,480,577.17s9.71-2.78,16,1.66c8.87,6.21,12.93,8.55,20.54,6a63.8,63.8,0,0,0,13.22-6.21l15-1.55S558.93,541.8,539.54,536.37Z"/><path id="Path_2315" data-name="Path 2315" class="cls-15" d="M482.87,543.6c0,.17-3.1-.79-8.05-1.12a41.57,41.57,0,0,0-34.66,14.79,81.31,81.31,0,0,0-4.77,6.6,9.74,9.74,0,0,1,.95-2,35.58,35.58,0,0,1,3.37-5,40.24,40.24,0,0,1,35.15-15,37,37,0,0,1,5.92,1,10.51,10.51,0,0,1,2.1.68Z"/><path id="Path_2316" data-name="Path 2316" class="cls-15" d="M478.37,533.18a32.61,32.61,0,0,0-27.94,4.07,78.56,78.56,0,0,0-15.68,13.3l-4.31,4.53a10.59,10.59,0,0,1-1.65,1.56,15.81,15.81,0,0,1,1.42-1.84c.94-1.14,2.34-2.77,4.13-4.75a72.23,72.23,0,0,1,15.72-13.61A35.79,35.79,0,0,1,470,531a24.23,24.23,0,0,1,6.21,1.15,12.92,12.92,0,0,1,1.56.61Z"/></g><g id="freepik--Device--inject-168"><path id="Path_2350" data-name="Path 2350" class="cls-5" d="M271.37,602.91l-51.5-129.28a16.9,16.9,0,0,1,15.65-23.28H396a16.9,16.9,0,0,1,16,11.46L456.19,592.2l51.67.25c4.19,0,7.59,6.2,7.59,10.35h0l-56.87-.65Z"/><path id="Path_2351" data-name="Path 2351" class="cls-6" d="M272.63,480.2A17.89,17.89,0,0,0,262.27,483a13.31,13.31,0,0,0-2.83,2.35c-2.75,3.1-7.65,9.1-5.7,18.47s8,10.66,10.87,11,22.53-5.29,22.53-5.29,7.14-6.07,4.66-14.05C289.52,488.58,283.19,480.58,272.63,480.2Z"/><path id="Path_2352" data-name="Path 2352" class="cls-10" d="M263.23,512s.71,5,3.23,6.21,7.2,1,10.86.14,8.94-3,9.56-5.73a11.62,11.62,0,0,0-.31-6.53,16.35,16.35,0,0,0-13.22-1.23A17.45,17.45,0,0,0,263.23,512Z"/><g id="Group_323" data-name="Group 323" class="cls-2"><path id="Path_2353" data-name="Path 2353" class="cls-3" d="M279.2,488a9.44,9.44,0,1,1-11.46-6.86A9.44,9.44,0,0,1,279.2,488Z"/></g><g id="Group_324" data-name="Group 324" class="cls-2"><path id="Path_2354" data-name="Path 2354" class="cls-3" d="M255.37,508.52a12.12,12.12,0,0,0,2.69-8,11.8,11.8,0,0,0-3.51-7.51,23.24,23.24,0,0,0-1,9.55,17.21,17.21,0,0,0,1.84,6Z"/></g><g id="Group_325" data-name="Group 325" class="cls-2"><path id="Path_2355" data-name="Path 2355" class="cls-3" d="M292.27,499.29a12,12,0,0,1-6.13-5.79,10.66,10.66,0,0,1-.61-7.9,26.27,26.27,0,0,1,5.36,7.52C292.72,497.45,292.27,499.29,292.27,499.29Z"/></g><path id="Path_2356" data-name="Path 2356" class="cls-10" d="M345.54,531.94a10.43,10.43,0,1,1-10.45-10.41h0A10.43,10.43,0,0,1,345.54,531.94Z"/></g><g id="freepik--Desk--inject-168"><path id="Path_2357" data-name="Path 2357" class="cls-5" d="M958.28,602.15c0,.21-213.36.4-476.51.4s-476.51-.19-476.51-.4,213.31-.4,476.51-.4S958.28,601.91,958.28,602.15Z"/></g><g id="freepik--Plant--inject-168"><path id="Path_2358" data-name="Path 2358" class="cls-6" d="M147.08,548.88c-15.18-8.8-23.28-29.28-23.9-46s6.37-34.23,20.18-43.83c14.47-10.12,35.08-9.94,49.95-.42s23.59,27.5,22.91,45.15-10.29,34.49-24.51,45"/><path id="Path_2359" data-name="Path 2359" class="cls-3" d="M171.31,550.43a19.7,19.7,0,0,1-.28-3.83c-.08-2.75-.19-6.21-.29-10.45-.24-8.83-.58-21-1.17-34.46s-1.32-25.62-1.87-34.42c-.25-4.21-.45-7.77-.62-10.45a17.52,17.52,0,0,1,0-3.83,20.11,20.11,0,0,1,.6,3.78c.3,2.45.67,6,1.07,10.42.81,8.78,1.69,21,2.28,34.44s.78,25.67.75,34.5c0,4.41,0,8-.16,10.46a19.61,19.61,0,0,1-.31,3.83Z"/><path id="Path_2360" data-name="Path 2360" class="cls-5" d="M127.66,499c0,.39-2.45.51-5.4.27s-5.32-.76-5.29-1.15,2.45-.51,5.4-.27S127.69,498.63,127.66,499Z"/><path id="Path_2361" data-name="Path 2361" class="cls-5" d="M128.5,484c-.17.36-2.25-.22-4.66-1.29s-4.23-2.23-4.08-2.59,2.25.22,4.66,1.29S128.66,483.69,128.5,484Z"/><path id="Path_2362" data-name="Path 2362" class="cls-5" d="M136.23,472.82c-.2.33-2.54-.77-5-2.79s-4-4.13-3.68-4.38,2.22,1.32,4.66,3.28S136.45,472.5,136.23,472.82Z"/><path id="Path_2363" data-name="Path 2363" class="cls-5" d="M144,462.3c-.36.15-1.55-1.55-2.52-3.93s-1.55-4.34-1.21-4.5,1.56,1.55,2.52,3.93S144.37,462.14,144,462.3Z"/><path id="Path_2364" data-name="Path 2364" class="cls-5" d="M156.22,454.83c-.35.16-1.55-1.7-2.37-4.3s-.87-4.82-.5-4.89,1.07,2,1.86,4.46S156.58,454.66,156.22,454.83Z"/><path id="Path_2365" data-name="Path 2365" class="cls-5" d="M176.59,446.43c.37.14.14,1.74-.51,3.57s-1.56,3.23-1.85,3.1-.14-1.74.51-3.57S176.22,446.28,176.59,446.43Z"/><path id="Path_2366" data-name="Path 2366" class="cls-5" d="M191.69,452.89c.26.3-.7,1.55-2.16,3s-2.87,2.22-3.1,1.94.7-1.63,2.16-3S191.43,452.64,191.69,452.89Z"/><path id="Path_2367" data-name="Path 2367" class="cls-5" d="M205,461.48c.21.32-1,1.55-2.64,2.65s-3.23,1.78-3.45,1.46,1-1.55,2.64-2.64S204.77,461.15,205,461.48Z"/><path id="Path_2368" data-name="Path 2368" class="cls-5" d="M214.43,474.28c.15.37-1.71,1.55-4.16,2.55s-4.57,1.55-4.66,1.24,1.71-1.55,4.16-2.55S214.35,473.92,214.43,474.28Z"/><path id="Path_2369" data-name="Path 2369" class="cls-5" d="M218.15,488.25c0,.39-1.84.95-4.23,1.24s-4.36.22-4.41-.17,1.85-.95,4.24-1.24S218.11,487.86,218.15,488.25Z"/><path id="Path_2370" data-name="Path 2370" class="cls-5" d="M220.08,505.42c-.15.35-2.17-.17-4.5-1.2s-4.1-2.13-3.94-2.49,2.17.17,4.5,1.18S220.23,505.08,220.08,505.42Z"/><path id="Path_2371" data-name="Path 2371" class="cls-5" d="M218.39,520.19c-.13.36-2.69-.25-5.36-2s-4.25-3.83-4-4.1,2.23,1.28,4.75,2.9S218.53,519.8,218.39,520.19Z"/><path id="Path_2372" data-name="Path 2372" class="cls-5" d="M210.7,533.62c-.23.31-2.26-.89-4.22-3s-3-4.21-2.67-4.42,1.85,1.44,3.71,3.46S211,533.36,210.7,533.62Z"/><path id="Path_2373" data-name="Path 2373" class="cls-5" d="M137.77,535.2c.18.34-2,1.82-4.77,3.28s-5.24,2.37-5.41,2,1.94-1.82,4.76-3.28S137.58,534.91,137.77,535.2Z"/><path id="Path_2374" data-name="Path 2374" class="cls-5" d="M131.11,523.05c.15.36-1.55,1.55-3.82,2.52s-4.25,1.55-4.41,1.22,1.56-1.55,3.82-2.51S130.94,522.69,131.11,523.05Z"/><path id="Path_2375" data-name="Path 2375" class="cls-5" d="M126.21,512.29c0,.39-2,1-4.66,1.38s-4.84.38-4.9,0,2.06-1,4.66-1.38S126.16,511.9,126.21,512.29Z"/><path id="Path_2376" data-name="Path 2376" class="cls-5" d="M142.27,506.36c.12.38-1.94,1.32-4.66,1.63s-5-.17-4.92-.54,2.16-.57,4.77-.87S142.16,506,142.27,506.36Z"/><path id="Path_2377" data-name="Path 2377" class="cls-5" d="M155.62,493.09c.11.36-1.55,1.2-3.73,1.4s-4-.26-3.92-.65,1.73-.56,3.78-.76S155.49,492.71,155.62,493.09Z"/><path id="Path_2378" data-name="Path 2378" class="cls-5" d="M158.16,482.45c-.12.37-1.89.1-3.95-.61s-3.62-1.55-3.48-2,1.89-.1,3.94.61S158.29,482.13,158.16,482.45Z"/><path id="Path_2379" data-name="Path 2379" class="cls-5" d="M163.13,471.69c-.26.28-1.55-.53-2.34-2s-1-3-.59-3.1,1,1,1.81,2.35S163.35,471.43,163.13,471.69Z"/><path id="Path_2380" data-name="Path 2380" class="cls-5" d="M157.15,515.72c.1.39-1.42,1.09-3.41,1.56a13.25,13.25,0,0,1-2.87.41l-.3-.83c.53-.1.86,0,.92.09s-.14.4-.56.71l-.28-.82a12.79,12.79,0,0,1,2.75-1C155.37,515.43,157.06,515.35,157.15,515.72Z"/><path id="Path_2381" data-name="Path 2381" class="cls-5" d="M159.9,534.58c.16.37-1.8,1.48-4.36,2.49s-4.73,1.55-4.87,1.14,1.8-1.47,4.36-2.46S159.76,534.23,159.9,534.58Z"/><path id="Path_2382" data-name="Path 2382" class="cls-5" d="M144.83,526.22c.12.37-1.16,1.14-2.9,1.73s-3.24.76-3.37.39,1.18-1.15,2.9-1.74S144.71,525.85,144.83,526.22Z"/><path id="Path_2383" data-name="Path 2383" class="cls-5" d="M146.06,487.83c-.1.37-2.36.16-5-.79s-4.54-2.17-4.37-2.51,2.29.27,4.83,1.18S146.06,487.44,146.06,487.83Z"/><path id="Path_2384" data-name="Path 2384" class="cls-5" d="M182.47,483.69c.22.32-1.07,1.55-2.86,2.73S176.18,488.3,176,488s1.06-1.55,2.84-2.73S182.25,483.33,182.47,483.69Z"/><path id="Path_2385" data-name="Path 2385" class="cls-5" d="M184.44,502.59c.09.39-1.26,1-3,1.35s-3.2.34-3.29,0,1.27-1,3-1.35S184.36,502.2,184.44,502.59Z"/><path id="Path_2386" data-name="Path 2386" class="cls-5" d="M186.75,523.89c-.17.35-2.1-.19-4.31-1.23s-3.9-2.14-3.73-2.5,2.1.19,4.32,1.21S186.92,523.53,186.75,523.89Z"/><path id="Path_2387" data-name="Path 2387" class="cls-5" d="M181.88,544.61c-.31.25-1.55-.78-2.81-2.28s-2-3-1.71-3.2,1.56.77,2.81,2.28S182.17,544.36,181.88,544.61Z"/><path id="Path_2388" data-name="Path 2388" class="cls-5" d="M180.87,469.72c.25.29-.59,1.33-2,2s-2.75.76-2.86.38.94-1,2.22-1.66S180.64,469.39,180.87,469.72Z"/><path id="Path_2389" data-name="Path 2389" class="cls-5" d="M198.83,488.81c.12.36-1.55,1.27-3.79,1.55s-4.1-.11-4.06-.48,1.76-.62,3.86-.93S198.63,488.44,198.83,488.81Z"/><path id="Path_2390" data-name="Path 2390" class="cls-5" d="M195.2,471.67c.17.34-1.48,1.56-3.8,2.25s-4.37.75-4.41.38,1.75-1,4-1.73S195,471.27,195.2,471.67Z"/><path id="Path_2391" data-name="Path 2391" class="cls-5" d="M202.65,515.37c0,.38-2.81.63-6.21,0s-5.93-1.84-5.81-2.19,2.8.2,6.06.77S202.66,515,202.65,515.37Z"/><path id="Path_2392" data-name="Path 2392" class="cls-5" d="M196,540.26c-.23.31-2.3-.9-4.36-3s-3.28-4.14-3-4.37,2,1.36,4,3.36S196.25,540,196,540.26Z"/><path id="Path_2393" data-name="Path 2393" class="cls-3" d="M166.81,451.4c.2.31-5.68,2.68-12.42,9.86a60.79,60.79,0,0,0-15.52,34.33,77.21,77.21,0,0,0,.93,21,165.09,165.09,0,0,0,3.94,16.87c1.37,4.75,2.63,8.57,3.46,11.21a27.21,27.21,0,0,1,1.2,4.14,23.59,23.59,0,0,1-1.72-4c-1-2.59-2.41-6.36-3.9-11.1a142.47,142.47,0,0,1-4.27-16.95,75.37,75.37,0,0,1-1-21.41c1.75-15.29,9.1-27.94,16.22-34.87a45.29,45.29,0,0,1,9.31-7.28,30.3,30.3,0,0,1,2.86-1.55A2.94,2.94,0,0,1,166.81,451.4Z"/><path id="Path_2394" data-name="Path 2394" class="cls-3" d="M186.2,549.76c-.31-.15,3.2-5.56,6.39-15.29a86.23,86.23,0,0,0,3.82-39.27,74,74,0,0,0-6-20.95A49.45,49.45,0,0,0,180,459.88a37.53,37.53,0,0,0-10.12-6.4c-2.64-1.1-4.2-1.36-4.19-1.55a3.29,3.29,0,0,1,1.17.08,22.52,22.52,0,0,1,3.22.87,35.18,35.18,0,0,1,10.59,6.21,48.61,48.61,0,0,1,10.87,14.57,72.39,72.39,0,0,1,6.2,21.31,83.34,83.34,0,0,1-4.28,39.81c-.79,2.46-1.83,4.55-2.61,6.46a37,37,0,0,1-2.36,4.66,26,26,0,0,1-2.32,3.86Z"/><path id="Path_2395" data-name="Path 2395" class="cls-5" d="M131.11,546.39h78.4l.48,15.7H131.11Z"/><path id="Path_2396" data-name="Path 2396" class="cls-5" d="M137.77,554.23l4.5,47.92h57.32l4.61-47.39Z"/><path id="Path_2397" data-name="Path 2397" class="cls-4" d="M210,562.27c0,.39-17.65.72-39.42.72s-39.44-.33-39.44-.72,17.64-.71,39.44-.71S210,561.89,210,562.27Z"/><path id="Path_2398" data-name="Path 2398" class="cls-4" d="M202,576.82a11.85,11.85,0,0,1-1.65,3.1,44.87,44.87,0,0,1-6.08,7.18l-.36.34-.36-.37a113.66,113.66,0,0,0-15.36-13.46h.87l-6.82,6-8.05,7-.45.38-.45-.38-13.09-11,.76-.08-6.76,8.25a18.52,18.52,0,0,1-2.67,2.92,21,21,0,0,1,2.19-3.27l6.41-8.57.32-.44.44.36,13.28,10.77h-.88l8-7,6.84-6,.42-.36.45.33a101.11,101.11,0,0,1,15.29,13.87h-.71a80.66,80.66,0,0,0,8.41-9.58Z"/></g></g></g></svg>