<svg id="Layer_1" data-name="Layer 1" xmlns="http://www.w3.org/2000/svg" xmlns:xlink="http://www.w3.org/1999/xlink" viewBox="0 0 110 110"><defs><style>.cls-1{fill:none;}.cls-2{clip-path:url(#clip-path);}.cls-3{fill:#09577a;}</style><clipPath id="clip-path"><rect class="cls-1" x="19.93" y="1.65" width="70.13" height="106.71"/></clipPath></defs><g class="cls-2"><g id="Group_297" data-name="Group 297"><path id="Path_2102" data-name="Path 2102" class="cls-3" d="M56.55,1.65l2.16.19A32.16,32.16,0,0,1,70.3,5.11,34.6,34.6,0,0,1,87.87,24.42a34.07,34.07,0,0,1,1.92,16.43,34.74,34.74,0,0,1-8.2,18.62A38.4,38.4,0,0,1,74.18,66a13.06,13.06,0,0,0-5.73,9.3A4,4,0,0,0,69,77.69a11.31,11.31,0,0,1,.92,2.18,5,5,0,0,1-.71,3.91c-.25.44-.52.88-.78,1.32.26.44.53.87.78,1.31a5.07,5.07,0,0,1,0,5.7,2.12,2.12,0,0,0,0,2.67c2.3,3.67-.32,7.42-3.26,8.39a10.22,10.22,0,0,1-2.64.28c-.91,0-1.82,0-2.72,0-.36,0-.5.09-.56.47a4.9,4.9,0,0,1-2.78,4,10,10,0,0,1-1.43.47H54.26c-.31-.09-.62-.16-.93-.27a4.79,4.79,0,0,1-3.2-3.8l-.16-.75-.84-.06c-1.5-.07-3,0-4.51-.23a5.56,5.56,0,0,1-4.51-4.87,6,6,0,0,1,1.32-4.57.45.45,0,0,0,.07-.64.23.23,0,0,0-.07-.07,6.14,6.14,0,0,1,0-7.68c.3-.33.1-.53-.09-.79a6,6,0,0,1-.59-6.56.76.76,0,0,1,.13-.23c1-1,.77-2.11.57-3.26a13.49,13.49,0,0,0-6-8.82,34.67,34.67,0,0,1-13-16.27c-4.82-12.84-2.77-24.67,5.85-35.28A33.32,33.32,0,0,1,45.61,3c2-.56,4.07-.82,6.11-1.22.12,0,.24-.06.36-.09ZM48.31,75V43.38c-1-.05-1.94-.05-2.88-.16a6.2,6.2,0,0,1-1.93-.47,5.57,5.57,0,0,1-3.41-5.56A5.7,5.7,0,0,1,47.6,32a5.45,5.45,0,0,1,3.94,4.86c.1,1,.15,2.08.22,3.13h4.86c.08-1.09.15-2.14.24-3.18.38-4.53,5.64-6.35,8.9-4.08a5.82,5.82,0,0,1,2.43,6.18,5.88,5.88,0,0,1-4.42,4.27c-.65.13-1.32.19-2,.28V75h3.48c0-.39,0-.74.1-1.07a16,16,0,0,1,6.77-10.5,35.75,35.75,0,0,0,8.59-8.19,29.78,29.78,0,0,0,6-17.13A30.92,30.92,0,0,0,70.47,9,27.93,27.93,0,0,0,57.36,5.07a36.38,36.38,0,0,0-6.68.14,30.1,30.1,0,0,0-15.39,6.71c-9,7.64-13,17.36-11.69,29.16a29.8,29.8,0,0,0,3.3,10.23A33.52,33.52,0,0,0,37.28,62.94c3.55,2.6,6.18,5.78,7.24,10.11.15.65.24,1.31.37,2Zm10-31.67H51.71V75h6.63ZM55,83.31h0c3.08,0,6.16,0,9.24,0a2.93,2.93,0,0,0,1.47-.43,2.39,2.39,0,0,0,.84-2.72,2.18,2.18,0,0,0-2.24-1.62c-2,0-4-.11-6-.1q-6.22,0-12.45.1a2.39,2.39,0,0,0-1.64.46,2.52,2.52,0,0,0-.77,2.75,2.18,2.18,0,0,0,2.23,1.57c3.1,0,6.2,0,9.3,0m0,8.38v.09c1.3,0,2.61,0,3.91,0,1.92,0,3.84-.12,5.76-.15a2.31,2.31,0,0,0,2-2.49,2.21,2.21,0,0,0-2.14-2.23c-1.9-.07-3.8-.12-5.7-.12q-6.68,0-13.33.12a2.18,2.18,0,0,0-2.11,1.84,2.42,2.42,0,0,0,1.17,2.64,4.06,4.06,0,0,0,1.58.29c3,0,5.91,0,8.87,0m0,3.48v-.06c-.74,0-1.49,0-2.23,0-2.48,0-5,.12-7.45.15a2.35,2.35,0,0,0-2,2.37,2.29,2.29,0,0,0,2,2.34c.49,0,1,.09,1.47.09,3.81,0,7.61,0,11.42,0,2.1,0,4.2-.1,6.31-.11a2.39,2.39,0,0,0,0-4.75c-.45,0-.9-.07-1.36-.07-2.73,0-5.47,0-8.21,0M48.35,40c0-.73,0-1.34,0-2a5.94,5.94,0,0,0-.13-1.19A2.41,2.41,0,0,0,45.63,35a2.63,2.63,0,0,0-2.3,2.44,2.32,2.32,0,0,0,2.06,2.45c1,.12,1.91.12,3,.17m11.6,0c1.14-.05,2.13-.05,3.1-.16a2.33,2.33,0,0,0,2-2.41A2.44,2.44,0,0,0,62.85,35a2.27,2.27,0,0,0-2.61,1.69,30.78,30.78,0,0,0-.3,3.32M55,103.44l-1.29.1c-.33,0-.39.22-.28.5a1.72,1.72,0,0,0,3.19,0c.11-.3,0-.5-.32-.52l-1.3-.1"/></g></g></svg>