<svg id="Layer_1" data-name="Layer 1" xmlns="http://www.w3.org/2000/svg" viewBox="0 0 82 92"><defs><style>.cls-1{fill:#89d6fb;}.cls-2{fill:#f3f5f9;}.cls-3{fill:#09577a;}.cls-4{fill:#e1e6f0;}.cls-5{fill:#02303f;}.cls-6{fill:#d4f0fc;}</style></defs><g id="community-manager"><g id="Group_238" data-name="Group 238"><path id="Path_57" data-name="Path 57" class="cls-1" d="M11.63,32l2.69-4.67,9.34,5.4L21,37.36Z"/></g><g id="Group_239" data-name="Group 239"><path id="Path_58" data-name="Path 58" class="cls-1" d="M58.31,58.92,61,54.25l9.34,5.4-2.7,4.66Z"/></g><g id="Group_240" data-name="Group 240"><path id="Path_59" data-name="Path 59" class="cls-1" d="M11.63,59.63,21,54.24l2.7,4.67L14.33,64.3Z"/></g><g id="Group_241" data-name="Group 241"><path id="Path_60" data-name="Path 60" class="cls-1" d="M58.31,32.68l9.34-5.4L70.34,32,61,37.34Z"/></g><g id="Group_242" data-name="Group 242"><path id="Path_61" data-name="Path 61" class="cls-2" d="M38.29,13.28h5.39v11H38.29Z"/></g><g id="Group_243" data-name="Group 243"><path id="Path_62" data-name="Path 62" class="cls-2" d="M38.29,67.36h5.39v11H38.29Z"/></g><g id="Group_244" data-name="Group 244"><path id="Path_63" data-name="Path 63" class="cls-1" d="M35,83.35,11.63,69.7,14.33,65,37.67,78.68Z"/></g><g id="Group_245" data-name="Group 245"><path id="Path_64" data-name="Path 64" class="cls-1" d="M47,83.5l-2.58-4.73,23.74-13.1,2.58,4.73Z"/></g><g id="Group_246" data-name="Group 246"><path id="Path_65" data-name="Path 65" class="cls-1" d="M70.64,32.32H76v27H70.64Z"/></g><g id="Group_247" data-name="Group 247"><path id="Path_66" data-name="Path 66" class="cls-1" d="M67.65,26.57,44.31,12.91,47,8.25,70.35,21.9Z"/></g><g id="Group_248" data-name="Group 248"><path id="Path_67" data-name="Path 67" class="cls-1" d="M14.33,26.57l-2.7-4.67L35,8.25l2.7,4.67Z"/></g><g id="Group_249" data-name="Group 249"><path id="Path_68" data-name="Path 68" class="cls-1" d="M6,32.32h5.39v27H6Z"/></g><g id="Community_manager" data-name="Community manager"><g id="Group_250" data-name="Group 250"><path id="Path_69" data-name="Path 69" class="cls-3" d="M4.27,33.93a8.08,8.08,0,0,1,8.08-14h0a8.08,8.08,0,0,1-8.09,14Z"/></g><g id="Group_251" data-name="Group 251"><path id="Path_70" data-name="Path 70" class="cls-3" d="M69.62,71.67a8.09,8.09,0,1,1,11-3h0A8.11,8.11,0,0,1,69.62,71.67Z"/></g><g id="Group_252" data-name="Group 252"><path id="Path_71" data-name="Path 71" class="cls-3" d="M1.3,68.71a8.09,8.09,0,1,1,11,3A8.08,8.08,0,0,1,1.3,68.71Z"/></g><g id="Group_253" data-name="Group 253"><path id="Path_72" data-name="Path 72" class="cls-3" d="M66.66,31a8.1,8.1,0,0,1,3-11h0a8.08,8.08,0,1,1-3,11.05Z"/></g></g><path id="Path_73" data-name="Path 73" class="cls-4" d="M41,13.28h2.7v11H41Z"/><path id="Path_74" data-name="Path 74" class="cls-4" d="M41,67.36h2.7v11H41Z"/><g id="Group_254" data-name="Group 254"><path id="Path_75" data-name="Path 75" class="cls-3" d="M41,16a8.09,8.09,0,1,1,8.08-8.09h0A8.09,8.09,0,0,1,41,16Z"/></g><g id="Group_255" data-name="Group 255"><path id="Path_76" data-name="Path 76" class="cls-3" d="M41,91.8a8.09,8.09,0,1,1,8.08-8.09h0A8.09,8.09,0,0,1,41,91.8Z"/></g><path id="Path_77" data-name="Path 77" class="cls-5" d="M49.07,83.71A8.08,8.08,0,0,0,41,75.63V91.8A8.1,8.1,0,0,0,49.07,83.71Z"/><path id="Path_78" data-name="Path 78" class="cls-5" d="M49.07,7.88A8.09,8.09,0,0,0,41-.2V16A8.09,8.09,0,0,0,49.07,7.88Z"/><g id="Group_256" data-name="Group 256"><path id="Path_79" data-name="Path 79" class="cls-6" d="M65.24,45.8A24.29,24.29,0,0,1,51.77,67.52L41,62,30.21,67.52a24.25,24.25,0,1,1,35-21.72Z"/></g><path id="Path_80" data-name="Path 80" class="cls-1" d="M51.77,67.52A24.25,24.25,0,0,0,41,21.54V62Z"/><g id="Group_257" data-name="Group 257"><path id="Path_81" data-name="Path 81" class="cls-3" d="M41,48.49a8.09,8.09,0,1,1,8.08-8.08h0A8.08,8.08,0,0,1,41,48.49Z"/></g><path id="Path_82" data-name="Path 82" class="cls-3" d="M41,51.19A10.8,10.8,0,0,0,30.21,62v5.55a24.19,24.19,0,0,0,21.56,0V62A10.82,10.82,0,0,0,41,51.19Z"/><g id="Group_258" data-name="Group 258"><path id="Path_83" data-name="Path 83" class="cls-3" d="M51.77,67.52V62A10.82,10.82,0,0,0,41,51.19V70.06A24.16,24.16,0,0,0,51.77,67.52Z"/><path id="Path_84" data-name="Path 84" class="cls-3" d="M49.07,40.41A8.09,8.09,0,0,0,41,32.32V48.49A8.08,8.08,0,0,0,49.07,40.41Z"/></g></g></svg>