<svg id="Layer_1" data-name="Layer 1" xmlns="http://www.w3.org/2000/svg" viewBox="0 0 187.05 295.63"><defs><style>.cls-1{fill:#09577a;opacity:0.5;isolation:isolate;}</style></defs><path id="Combined_Shape" data-name="Combined Shape" class="cls-1" d="M162.79,279.18a5.62,5.62,0,1,1,5.62,5.62,5.62,5.62,0,0,1-5.62-5.62Zm-37.44,0A5.62,5.62,0,1,1,131,284.8a5.62,5.62,0,0,1-5.62-5.62Zm-37.44,0a5.62,5.62,0,1,1,5.62,5.62,5.62,5.62,0,0,1-5.62-5.62Zm-37.44,0a5.62,5.62,0,1,1,5.61,5.62,5.61,5.61,0,0,1-5.61-5.62Zm-37.44,0a5.62,5.62,0,1,1,5.61,5.62A5.61,5.61,0,0,1,13,279.18Zm149.76-37.53a5.62,5.62,0,1,1,5.62,5.61,5.62,5.62,0,0,1-5.62-5.61Zm-37.44,0a5.62,5.62,0,1,1,5.62,5.61,5.62,5.62,0,0,1-5.62-5.61Zm-37.44,0a5.62,5.62,0,1,1,5.62,5.61,5.62,5.62,0,0,1-5.62-5.61Zm-37.44,0a5.62,5.62,0,1,1,5.61,5.61,5.62,5.62,0,0,1-5.61-5.61Zm-37.44,0a5.62,5.62,0,1,1,5.61,5.61A5.62,5.62,0,0,1,13,241.65Zm149.76-37.54a5.62,5.62,0,1,1,5.62,5.62,5.62,5.62,0,0,1-5.62-5.62Zm-37.44,0a5.62,5.62,0,1,1,5.62,5.62,5.62,5.62,0,0,1-5.62-5.62Zm-37.44,0a5.62,5.62,0,1,1,5.62,5.62h0a5.62,5.62,0,0,1-5.62-5.62Zm-37.44,0a5.62,5.62,0,1,1,5.61,5.62,5.61,5.61,0,0,1-5.61-5.62Zm-37.44,0a5.62,5.62,0,1,1,5.62,5.62h0A5.62,5.62,0,0,1,13,204.11Zm149.76-37.53a5.62,5.62,0,1,1,5.62,5.62,5.62,5.62,0,0,1-5.62-5.62Zm-37.44,0A5.62,5.62,0,1,1,131,172.2a5.62,5.62,0,0,1-5.62-5.62Zm-37.44,0a5.62,5.62,0,1,1,5.62,5.62,5.62,5.62,0,0,1-5.62-5.62Zm-37.44,0a5.62,5.62,0,1,1,5.61,5.62,5.62,5.62,0,0,1-5.61-5.62Zm-37.44,0a5.62,5.62,0,1,1,5.61,5.62A5.62,5.62,0,0,1,13,166.58Zm149.76-37.53a5.62,5.62,0,1,1,5.62,5.61,5.62,5.62,0,0,1-5.62-5.61Zm-37.44,0a5.62,5.62,0,1,1,5.62,5.61,5.62,5.62,0,0,1-5.62-5.61Zm-37.44,0a5.62,5.62,0,1,1,5.62,5.61,5.62,5.62,0,0,1-5.62-5.61Zm-37.44,0a5.62,5.62,0,1,1,5.61,5.61,5.61,5.61,0,0,1-5.61-5.61Zm-37.44,0a5.62,5.62,0,1,1,5.61,5.61A5.61,5.61,0,0,1,13,129.05ZM162.79,91.51a5.62,5.62,0,1,1,5.62,5.62,5.62,5.62,0,0,1-5.62-5.62Zm-37.44,0A5.62,5.62,0,1,1,131,97.13a5.62,5.62,0,0,1-5.62-5.62Zm-37.44,0a5.62,5.62,0,1,1,5.62,5.62,5.62,5.62,0,0,1-5.62-5.62Zm-37.44,0a5.62,5.62,0,1,1,5.62,5.62,5.62,5.62,0,0,1-5.62-5.62ZM13,91.51a5.62,5.62,0,1,1,5.61,5.62A5.62,5.62,0,0,1,13,91.51ZM162.79,54a5.62,5.62,0,1,1,5.62,5.61A5.62,5.62,0,0,1,162.79,54Zm-37.44,0A5.62,5.62,0,1,1,131,59.59,5.62,5.62,0,0,1,125.35,54ZM87.91,54a5.62,5.62,0,1,1,5.62,5.61A5.62,5.62,0,0,1,87.91,54ZM50.47,54a5.62,5.62,0,1,1,5.61,5.61A5.62,5.62,0,0,1,50.47,54ZM13,54a5.62,5.62,0,1,1,5.61,5.61A5.62,5.62,0,0,1,13,54ZM162.79,16.44a5.62,5.62,0,1,1,5.62,5.62,5.62,5.62,0,0,1-5.62-5.62Zm-37.44,0A5.62,5.62,0,1,1,131,22.06a5.62,5.62,0,0,1-5.62-5.62Zm-37.44,0a5.62,5.62,0,1,1,5.62,5.62,5.62,5.62,0,0,1-5.62-5.62Zm-37.44,0a5.62,5.62,0,1,1,5.61,5.62,5.61,5.61,0,0,1-5.61-5.62ZM13,16.44a5.62,5.62,0,1,1,5.61,5.62A5.61,5.61,0,0,1,13,16.44Z"/></svg>