<svg id="Layer_1" data-name="Layer 1" xmlns="http://www.w3.org/2000/svg" viewBox="0 0 351.23 155"><defs><style>.cls-1{fill:#09577a;}</style></defs><path id="Dots" class="cls-1" d="M6,143.81a5.41,5.41,0,1,1-5.4,5.41A5.41,5.41,0,0,1,6,143.81Zm0-36a5.41,5.41,0,1,1-5.4,5.41A5.41,5.41,0,0,1,6,107.76Zm0-36a5.41,5.41,0,1,1-5.4,5.4A5.41,5.41,0,0,1,6,71.72Zm0-36A5.41,5.41,0,1,1,.6,41.08h0A5.41,5.41,0,0,1,6,35.67ZM6-.38A5.41,5.41,0,1,1,.6,5,5.42,5.42,0,0,1,6-.38ZM54.63,143.81a5.41,5.41,0,1,1-5.4,5.41,5.41,5.41,0,0,1,5.4-5.41Zm0-36a5.41,5.41,0,1,1-5.4,5.41,5.41,5.41,0,0,1,5.4-5.41Zm0-36a5.41,5.41,0,1,1-5.41,5.4,5.41,5.41,0,0,1,5.41-5.4Zm0-36a5.41,5.41,0,1,1-5.4,5.41h0a5.41,5.41,0,0,1,5.4-5.41Zm0-36.05A5.41,5.41,0,1,1,49.22,5,5.42,5.42,0,0,1,54.63-.38Zm48.63,144.19a5.41,5.41,0,1,1-5.4,5.41h0a5.41,5.41,0,0,1,5.4-5.41Zm0-36a5.41,5.41,0,1,1-5.4,5.41h0a5.42,5.42,0,0,1,5.4-5.41Zm0-36a5.41,5.41,0,1,1-5.4,5.4h0a5.4,5.4,0,0,1,5.4-5.4Zm0-36a5.41,5.41,0,1,1-5.4,5.41h0a5.41,5.41,0,0,1,5.4-5.41Zm0-36.05A5.41,5.41,0,1,1,97.86,5h0A5.41,5.41,0,0,1,103.26-.38Zm48.63,144.19a5.41,5.41,0,1,1-5.4,5.41h0a5.41,5.41,0,0,1,5.4-5.41Zm0-36a5.41,5.41,0,1,1-5.4,5.41h0a5.42,5.42,0,0,1,5.4-5.41Zm0-36a5.41,5.41,0,1,1-5.4,5.4h0a5.4,5.4,0,0,1,5.4-5.4Zm0-36a5.41,5.41,0,1,1-5.4,5.41h0a5.41,5.41,0,0,1,5.4-5.41Zm0-36.05A5.41,5.41,0,1,1,146.49,5h0A5.41,5.41,0,0,1,151.89-.38Zm48.63,144.19a5.41,5.41,0,1,1-5.41,5.41h0A5.41,5.41,0,0,1,200.52,143.81Zm0-36a5.41,5.41,0,1,1-5.41,5.41h0a5.42,5.42,0,0,1,5.41-5.41Zm0-36a5.41,5.41,0,1,1-5.41,5.4h0a5.41,5.41,0,0,1,5.41-5.4Zm0-36a5.41,5.41,0,1,1-5.41,5.41h0a5.42,5.42,0,0,1,5.41-5.41Zm0-36.05A5.41,5.41,0,1,1,195.11,5h0A5.42,5.42,0,0,1,200.52-.38Zm48.63,144.19a5.41,5.41,0,1,1-5.4,5.41h0a5.41,5.41,0,0,1,5.4-5.41Zm0-36a5.41,5.41,0,1,1-5.4,5.41h0a5.41,5.41,0,0,1,5.4-5.41Zm0-36a5.41,5.41,0,1,1-5.4,5.4h0a5.4,5.4,0,0,1,5.4-5.4Zm0-36a5.41,5.41,0,1,1-5.4,5.41h0a5.41,5.41,0,0,1,5.4-5.41Zm0-36.05A5.41,5.41,0,1,1,243.75,5h0A5.41,5.41,0,0,1,249.15-.38Zm48.63,144.19a5.41,5.41,0,1,1-5.4,5.41h0A5.41,5.41,0,0,1,297.78,143.81Zm0-36a5.41,5.41,0,1,1-5.4,5.41h0a5.41,5.41,0,0,1,5.4-5.41Zm0-36a5.41,5.41,0,1,1-5.4,5.4,5.41,5.41,0,0,1,5.4-5.4Zm0-36a5.41,5.41,0,1,1-5.4,5.41h0a5.41,5.41,0,0,1,5.4-5.41Zm0-36.05A5.41,5.41,0,1,1,292.38,5a5.41,5.41,0,0,1,5.4-5.41Zm48.63,144.19a5.41,5.41,0,1,1-5.4,5.41h0A5.41,5.41,0,0,1,346.41,143.81Zm0-36a5.41,5.41,0,1,1-5.4,5.41h0a5.41,5.41,0,0,1,5.4-5.41Zm0-36a5.41,5.41,0,1,1-5.4,5.4,5.41,5.41,0,0,1,5.4-5.4Zm0-36a5.41,5.41,0,1,1-5.4,5.41h0a5.41,5.41,0,0,1,5.4-5.41Zm0-36.05A5.41,5.41,0,1,1,341,5a5.41,5.41,0,0,1,5.4-5.41Z" transform="translate(-0.6 0.38)"/></svg>