<svg id="Layer_1" data-name="Layer 1" xmlns="http://www.w3.org/2000/svg" viewBox="0 0 110 110"><defs><style>.cls-1{fill:#09577a;}</style></defs><g id="worldwide"><g id="Group_300" data-name="Group 300"><path id="Path_2120" data-name="Path 2120" class="cls-1" d="M55,0A55,55,0,0,0,4.45,33.37l-.69.22.27.8A55,55,0,1,0,55,0ZM98.13,82.73l-2.82-2.82V73.34a1.89,1.89,0,0,0-.18-.82L88,58.24v-6.9a1.83,1.83,0,0,0-.82-1.52l-5.5-3.67a1.8,1.8,0,0,0-1.46-.25l-6.74,1.68L62.15,42.73,60.6,31.83l4.31-4.31h9.26l3.12,4.68a1.81,1.81,0,0,0,1.22.79l11,1.83a1.75,1.75,0,0,0,.88-.07l10.12-3.38A51.12,51.12,0,0,1,98.13,82.73ZM90.57,18.08l-3,2-8.3-1.66-5.39-1.8a1.9,1.9,0,0,0-1,0l-6.81,1.7-3-1,2.22-4.42h6.2a1.83,1.83,0,0,0,.82-.19l6.34-3.17a51.51,51.51,0,0,1,11.92,8.59ZM34.91,7.78l4.4,2.93A1.88,1.88,0,0,0,40,11l8.88,1.47L48,15.07l-4.63,1.55a1.89,1.89,0,0,0-1,.79l-5.26,8.77L28.7,31.26,16.24,33a1.84,1.84,0,0,0-1.58,1.81v5.5a1.85,1.85,0,0,0,.54,1.3l3.13,3.12v3.15L10.7,42.84l-2.76-8.3A51.62,51.62,0,0,1,34.91,7.78ZM29.69,67.87l-8.28-1.66-3.08-6.14v-4.3l6.83-6.83L27.69,54a1.83,1.83,0,0,0,1.64,1H41.12l5,8.27a1.8,1.8,0,0,0,1.57.89h5.1L51.47,70.6l-6.93,6.94a1.81,1.81,0,0,0-.54,1.3v4.58l-6.6,5a1.85,1.85,0,0,0-.74,1.47v6.62l-2.28-.76-3.21-8v-18A1.85,1.85,0,0,0,29.69,67.87Zm-5.5,28.18A51.3,51.3,0,0,1,5.9,40l1.53,4.57a1.84,1.84,0,0,0,.72.95l9.14,6.09L15.2,53.71a1.88,1.88,0,0,0-.54,1.3v5.5a1.77,1.77,0,0,0,.2.82l3.66,7.33a1.85,1.85,0,0,0,1.28,1l7.7,1.54V88a2,2,0,0,0,.13.68l3.67,9.16a1.81,1.81,0,0,0,1.12,1.06l5.5,1.84a2.28,2.28,0,0,0,.57.1A1.84,1.84,0,0,0,40.33,99h0V90.75l6.6-5a1.84,1.84,0,0,0,.73-1.47V79.59l6.79-6.79a1.8,1.8,0,0,0,.5-.94l1.84-9.16a1.85,1.85,0,0,0-1.44-2.16l-.36,0h-6.3l-5-8.28a1.84,1.84,0,0,0-1.57-.89H30.46L27.31,45A1.84,1.84,0,0,0,26,44a1.8,1.8,0,0,0-1.59.51L22,46.92V44a1.86,1.86,0,0,0-.53-1.3l-3.13-3.13V36.44l11.26-1.61a2,2,0,0,0,.68-.24l9.16-5.5a1.81,1.81,0,0,0,.63-.63l5.15-8.58,4.86-1.62a1.82,1.82,0,0,0,1.15-1.16l1.84-5.5a1.84,1.84,0,0,0-1.17-2.32l-.27-.07L41,7.45,39.15,6.21A51.15,51.15,0,0,1,74.4,7.52L71.05,9.19h-6.9a1.82,1.82,0,0,0-1.65,1l-3.67,7.33A1.83,1.83,0,0,0,59.66,20l.23.1,5.5,1.83a1.81,1.81,0,0,0,1,0l6.81-1.7,5,1.66a.79.79,0,0,0,.22.06l9.16,1.84A1.87,1.87,0,0,0,89,23.54l4.17-2.78a51.42,51.42,0,0,1,5.51,7.37l-9,3L79.89,29.5l-3.23-4.83a1.83,1.83,0,0,0-1.52-.82h-11a1.84,1.84,0,0,0-1.3.54l-5.5,5.5a1.81,1.81,0,0,0-.51,1.55l1.84,12.83a1.83,1.83,0,0,0,1.1,1.43L72.6,51.2a1.81,1.81,0,0,0,1.17.09l6.54-1.64,4,2.68v6.34a1.89,1.89,0,0,0,.18.82l7.15,14.28v6.9a1.85,1.85,0,0,0,.54,1.3L96,85.81A51.29,51.29,0,0,1,24.19,96.05Z"/></g></g></svg>