<svg id="Layer_1" data-name="Layer 1" xmlns="http://www.w3.org/2000/svg" viewBox="0 0 91 92"><defs><style>.cls-1{fill:#09577a;}.cls-2{fill:#89d6fb;}.cls-3{fill:#a5c3dc;}.cls-4{fill:#d7e6f0;}.cls-5,.cls-7{opacity:0.5;}.cls-6{fill:#83aabb;}.cls-7{fill:#83aabc;isolation:isolate;}</style></defs><g id="hackathon"><g id="Group_267" data-name="Group 267"><g id="Group_259" data-name="Group 259"><path id="Path_85" data-name="Path 85" class="cls-1" d="M84.17,73.26H-.13V32.67a6.25,6.25,0,0,1,6.25-6.24H77.93a6.24,6.24,0,0,1,6.24,6.24h0Z"/></g><g id="Group_260" data-name="Group 260"><path id="Path_86" data-name="Path 86" class="cls-2" d="M77.93,73.26H-.13V32.67a6.25,6.25,0,0,1,6.25-6.24H71.68a6.25,6.25,0,0,1,6.25,6.24h0Z"/></g><g id="Group_261" data-name="Group 261"><path id="Path_87" data-name="Path 87" class="cls-3" d="M6.12,81.07H77.93a6.24,6.24,0,0,0,6.24-6.25V73.26H-.13v1.56a6.25,6.25,0,0,0,6.25,6.25Z"/></g><g id="Group_262" data-name="Group 262"><path id="Path_88" data-name="Path 88" class="cls-1" d="M71.68,81.07H6.12A6.25,6.25,0,0,1-.13,74.82V73.26H77.93v1.56A6.25,6.25,0,0,1,71.68,81.07Z"/></g><g id="Group_263" data-name="Group 263"><path id="Path_89" data-name="Path 89" class="cls-3" d="M32.66,81.07H46.71v6.24H32.66Z"/></g><g id="Group_264" data-name="Group 264"><path id="Path_90" data-name="Path 90" class="cls-4" d="M32.66,84.19H42v3.12H32.66Z"/></g><g id="Group_265" data-name="Group 265"><path id="Path_91" data-name="Path 91" class="cls-4" d="M54.51,92H23.29V90.44a3.13,3.13,0,0,1,3.12-3.13h25a3.13,3.13,0,0,1,3.12,3.13Z"/></g><g id="Group_266" data-name="Group 266"><path id="Path_92" data-name="Path 92" class="cls-3" d="M54.51,92H45.14V90.44a3.13,3.13,0,0,1,3.12-3.13h3.13a3.13,3.13,0,0,1,3.12,3.13Z"/></g></g><g id="Group_268" data-name="Group 268"><path id="Path_93" data-name="Path 93" class="cls-1" d="M17,60a2.32,2.32,0,0,1-1.65-.68l-7.81-7.8a2.36,2.36,0,0,1,0-3.32l7.81-7.81A2.35,2.35,0,0,1,18.7,43.7l-6.15,6.15L18.7,56A2.34,2.34,0,0,1,17,60Z"/></g><g id="Group_269" data-name="Group 269"><path id="Path_94" data-name="Path 94" class="cls-1" d="M38.9,60a2.34,2.34,0,0,1-1.66-4l6.15-6.15L37.24,43.7a2.35,2.35,0,0,1,3.31-3.32l7.81,7.81a2.35,2.35,0,0,1,0,3.31l-7.81,7.81A2.31,2.31,0,0,1,38.9,60Z"/></g><g id="Group_270" data-name="Group 270"><path id="Path_95" data-name="Path 95" class="cls-1" d="M24.85,60a2.36,2.36,0,0,1-2.18-3.21l6.25-15.61a2.34,2.34,0,1,1,4.41,1.59l-.06.15L27,58.52A2.32,2.32,0,0,1,24.85,60Z"/></g><g id="Group_278" data-name="Group 278"><g id="Group_271" data-name="Group 271" class="cls-5"><path id="Path_96" data-name="Path 96" class="cls-6" d="M50.48,33.81H43.73A11.26,11.26,0,0,1,32.49,22.56V20.31a6.75,6.75,0,0,1,6.74-6.74h4.5v4.5h-4.5A2.25,2.25,0,0,0,37,20.32v2.25a6.76,6.76,0,0,0,6.75,6.74h6.75Z"/></g><g id="Group_272" data-name="Group 272"><path id="Path_97" data-name="Path 97" class="cls-7" d="M79.71,22.56V9.07h-36V22.56A18,18,0,0,0,59.47,40.41V55.77a6.75,6.75,0,0,1-6.74,6.75,4.49,4.49,0,0,0-4.5,4.5h27a4.49,4.49,0,0,0-4.49-4.5A6.75,6.75,0,0,1,64,55.77V40.41A18,18,0,0,0,79.71,22.56Z"/></g><g id="Group_273" data-name="Group 273" class="cls-5"><path id="Path_98" data-name="Path 98" class="cls-1" d="M82,9.07H41.48a2.25,2.25,0,1,1-.28-4.5H82a2.25,2.25,0,0,1,0,4.5Z"/></g><g id="Group_274" data-name="Group 274"><path id="Path_99" data-name="Path 99" class="cls-1" d="M82,4.57H61.72a2.25,2.25,0,0,1,0,4.5H82a2.25,2.25,0,0,0,0-4.5Z"/></g><g id="Group_275" data-name="Group 275"><path id="Path_100" data-name="Path 100" class="cls-1" d="M79.71,22.56V9.07h-36v4.5h18v9a18,18,0,0,1-9,15.59,18.16,18.16,0,0,0,6.75,2.26v4.64h2.25V67h13.5a4.5,4.5,0,0,0-4.5-4.5A6.75,6.75,0,0,1,64,55.78V40.41A18,18,0,0,0,79.71,22.56Z"/></g><g id="Group_276" data-name="Group 276"><path id="Path_101" data-name="Path 101" class="cls-1" d="M79.71,33.81H73v-4.5h6.74a6.75,6.75,0,0,0,6.75-6.75V20.31a2.25,2.25,0,0,0-2.25-2.25h-4.5V13.57h4.5A6.75,6.75,0,0,1,91,20.32v2.25A11.26,11.26,0,0,1,79.71,33.81Z"/></g><g id="Group_277" data-name="Group 277"><circle id="Ellipse_27" data-name="Ellipse 27" class="cls-1" cx="52.73" cy="22" r="3.94"/></g></g></g></svg>