<svg id="Layer_1" data-name="Layer 1" xmlns="http://www.w3.org/2000/svg" viewBox="0 0 110 110"><defs><style>.cls-1{fill:#09577a;}</style></defs><path class="cls-1" d="M99.24,0H62.14A2.15,2.15,0,0,0,60,2.18V19.67a2.15,2.15,0,0,0,3.76,1.41,6,6,0,1,1,.59,8.46,5.39,5.39,0,0,1-.59-.58A2.15,2.15,0,0,0,60,30.37v.56A10.31,10.31,0,0,0,50,29.8V16.46a2.15,2.15,0,0,0-2.15-2.15H10.77A10.74,10.74,0,0,0,0,25V99.23A10.74,10.74,0,0,0,10.77,110H85A10.75,10.75,0,0,0,95.69,99.23V94.64a2.15,2.15,0,1,0-4.29,0h0v4.59A6.44,6.44,0,0,1,85,105.67H50V90.33a2.14,2.14,0,0,0-3.76-1.41,6,6,0,1,1-.59-8.47,5.48,5.48,0,0,1,.59.59,2.15,2.15,0,0,0,3,.2A2.18,2.18,0,0,0,50,79.62V64.28H61.22a10.29,10.29,0,1,0,19,0H91.4v11a2.15,2.15,0,0,0,4.29,0h0V62.13A2.14,2.14,0,0,0,93.54,60h-.2a10.3,10.3,0,0,0,1.12-10h13.36A2.14,2.14,0,0,0,110,47.86h0V10.77A10.74,10.74,0,0,0,99.24,0ZM4.33,25a6.46,6.46,0,0,1,6.44-6.44h35V33.94a2.14,2.14,0,0,0,3.76,1.41,6,6,0,1,1,.58,8.47,7.93,7.93,0,0,1-.58-.58,2.14,2.14,0,0,0-3-.21,2.18,2.18,0,0,0-.73,1.62V60H34.51a10.29,10.29,0,1,0-19,0H4.33ZM41.11,74.71a10.29,10.29,0,1,0,4.61,19.75v11.21H10.77a6.45,6.45,0,0,1-6.44-6.44V64.28H19.67a2.14,2.14,0,0,0,1.41-3.76,6,6,0,1,1,8.47-.58,6.47,6.47,0,0,1-.59.58,2.15,2.15,0,0,0,1.42,3.76H45.72v11.2A10.27,10.27,0,0,0,41.11,74.71Zm33.54-11a6,6,0,1,1-8.47.59,6.47,6.47,0,0,1,.58-.59,2.14,2.14,0,0,0,.21-3A2.18,2.18,0,0,0,65.35,60H50V48.78a10.26,10.26,0,0,0,10-1.13v.21A2.15,2.15,0,0,0,62.14,50H75.49a10.31,10.31,0,0,0,1.13,10h-.56a2.15,2.15,0,0,0-2.15,2.15A2.11,2.11,0,0,0,74.65,63.75Zm31-18H90.34a2.15,2.15,0,0,0-2.15,2.15,2.18,2.18,0,0,0,.73,1.62,6,6,0,1,1-8.46.58,5.29,5.29,0,0,1,.58-.58,2.15,2.15,0,0,0-1.41-3.77H64.29V34.51a10.29,10.29,0,1,0,0-19V4.33H99.24a6.45,6.45,0,0,1,6.44,6.44Z"/><path class="cls-1" d="M93.55,82.83A2.15,2.15,0,1,0,95.69,85a2.12,2.12,0,0,0-.63-1.52A2.15,2.15,0,0,0,93.55,82.83Z"/></svg>