<svg id="Layer_1" data-name="Layer 1" xmlns="http://www.w3.org/2000/svg" viewBox="0 0 110 110"><defs><style>.cls-1{fill:#09577a;}</style></defs><g id="stopwatch"><path id="Path_2103" data-name="Path 2103" class="cls-1" d="M57.42,69.61a6.52,6.52,0,0,0,4.77-2.67L79.31,43.27a1.83,1.83,0,0,0-2.55-2.56L53.08,57.84a6.52,6.52,0,0,0,3.83,11.79Zm-3.36-6.72a2.87,2.87,0,0,1,1.17-2.09L69.67,50.35,59.23,64.79a2.86,2.86,0,0,1-5.17-1.9Z"/><path id="Path_2104" data-name="Path 2104" class="cls-1" d="M98.39,35.91s0-.08,0-.11-.06-.06-.08-.09a49.27,49.27,0,0,0-6.52-8.8L95.68,23l2.58,2.58L106,17.8l-7.76-7.75L90.5,17.81l2.59,2.59-3.93,3.92a50.5,50.5,0,0,0-8.8-6.52s-.06-.06-.09-.08l-.12,0a48.92,48.92,0,0,0-18.79-6.22V9.28h2.75a4.58,4.58,0,0,0,0-9.15H47.65a4.58,4.58,0,0,0,0,9.15H50.4v2.11a50.76,50.76,0,0,0-5.9,1,1.83,1.83,0,0,0,.82,3.56,48.11,48.11,0,0,1,5.08-.87l2-.15c.6-.05,1.15-.08,1.69-.1v3.62a1.83,1.83,0,0,0,3.66,0v-3.6A45.17,45.17,0,0,1,76.83,20L75,23.15A1.83,1.83,0,0,0,78.2,25L80,21.86A46.1,46.1,0,0,1,94.21,36.07l-3.11,1.8A1.83,1.83,0,0,0,92.93,41l3.12-1.8a45.33,45.33,0,0,1,5.21,19.42H97.65a1.83,1.83,0,0,0,0,3.66h3.61a45.3,45.3,0,0,1-5.21,19.42l-3.12-1.8A1.83,1.83,0,0,0,91.1,83.1h0l3.11,1.8A45.88,45.88,0,0,1,80,99.11L78.2,96A1.83,1.83,0,0,0,75,97.83h0l1.8,3.12a45.46,45.46,0,0,1-19.12,5.2v-3.6a1.83,1.83,0,0,0-3.66,0h0v3.61A45,45,0,0,1,45.32,105a1.83,1.83,0,0,0-.82,3.57,49.77,49.77,0,0,0,11.09,1.27h.34a49,49,0,0,0,24.17-6.54l.17-.07s.06-.06.1-.08A49.72,49.72,0,0,0,98.24,85.32l.11-.14s0-.08,0-.12a49.2,49.2,0,0,0,0-49.15Zm-.13-20.69,2.59,2.59L98.26,20.4l-2.59-2.59ZM54.05,11.15V5.62h-6.4a.92.92,0,0,1,0-1.83H64.11a.92.92,0,1,1,0,1.83h-6.4v5.53c-.63,0-1.24,0-1.83,0h-.29l-.9,0C54.47,11.13,54.27,11.13,54.05,11.15Z"/><path id="Path_2105" data-name="Path 2105" class="cls-1" d="M39.42,25.74H30.28a1.83,1.83,0,0,0,0,3.66h9.14a1.83,1.83,0,0,0,0-3.66Z"/><path id="Path_2106" data-name="Path 2106" class="cls-1" d="M39.42,38.54H21.13a1.83,1.83,0,0,0,0,3.66H39.42a1.83,1.83,0,0,0,0-3.66Z"/><path id="Path_2107" data-name="Path 2107" class="cls-1" d="M39.42,51.34H12A1.83,1.83,0,0,0,12,55H39.42a1.83,1.83,0,0,0,0-3.66Z"/><path id="Path_2108" data-name="Path 2108" class="cls-1" d="M39.42,64.14H4.67a1.83,1.83,0,1,0,0,3.66H39.42a1.83,1.83,0,1,0,0-3.66Z"/><path id="Path_2109" data-name="Path 2109" class="cls-1" d="M39.42,77H15.65a1.83,1.83,0,1,0,0,3.65H39.42a1.83,1.83,0,1,0,0-3.65Z"/><path id="Path_2110" data-name="Path 2110" class="cls-1" d="M39.42,89.75H26.62a1.83,1.83,0,0,0,0,3.66h12.8a1.83,1.83,0,0,0,0-3.66Z"/></g></svg>